<svg xmlns="http://www.w3.org/2000/svg" xmlns:xlink="http://www.w3.org/1999/xlink" xmlns:lucid="lucid" width="751" height="548"><g transform="translate(-64 -355)" lucid:page-tab-id="q9nzXhnqPFUj"><path d="M96.94 835.77a3.5 3.5 0 0 1-3.5-3.5 3.5 3.5 0 0 1 3.5-3.5 3.5 3.5 0 0 1 3.5 3.5 3.5 3.5 0 0 1-3.5 3.5m5.9 14.08a3.5 3.5 0 0 1-3.5-3.5 3.5 3.5 0 0 1 3.5-3.5 3.5 3.5 0 0 1 3.5 3.5 3.5 3.5 0 0 1-3.5 3.5m14.1 5.92a3.5 3.5 0 0 1-3.5-3.5 3.5 3.5 0 0 1 3.5-3.5 3.5 3.5 0 0 1 3.5 3.5 3.5 3.5 0 0 1-3.5 3.5m13.33 0a3.5 3.5 0 0 1-3.5-3.5 3.5 3.5 0 0 1 3.5-3.5 3.5 3.5 0 0 1 3.5 3.5 3.5 3.5 0 0 1-3.5 3.5m13.33 0a3.5 3.5 0 0 1-3.5-3.5 3.5 3.5 0 0 1 3.5-3.5 3.5 3.5 0 0 1 3.5 3.5 3.5 3.5 0 0 1-3.5 3.5m13.34 0a3.5 3.5 0 0 1-3.5-3.5 3.5 3.5 0 0 1 3.5-3.5 3.5 3.5 0 0 1 3.5 3.5 3.5 3.5 0 0 1-3.5 3.5m13.33 0a3.5 3.5 0 0 1-3.5-3.5 3.5 3.5 0 0 1 3.5-3.5 3.5 3.5 0 0 1 3.5 3.5 3.5 3.5 0 0 1-3.5 3.5m13.33 0a3.5 3.5 0 0 1-3.5-3.5 3.5 3.5 0 0 1 3.5-3.5 3.5 3.5 0 0 1 3.5 3.5 3.5 3.5 0 0 1-3.5 3.5m13.34 0a3.5 3.5 0 0 1-3.5-3.5 3.5 3.5 0 0 1 3.5-3.5 3.5 3.5 0 0 1 3.5 3.5 3.5 3.5 0 0 1-3.5 3.5m13.33 0a3.5 3.5 0 0 1-3.5-3.5 3.5 3.5 0 0 1 3.5-3.5 3.5 3.5 0 0 1 3.5 3.5 3.5 3.5 0 0 1-3.5 3.5m13.33 0a3.5 3.5 0 0 1-3.5-3.5 3.5 3.5 0 0 1 3.5-3.5 3.5 3.5 0 0 1 3.5 3.5 3.5 3.5 0 0 1-3.5 3.5m13.34 0a3.5 3.5 0 0 1-3.5-3.5 3.5 3.5 0 0 1 3.5-3.5 3.5 3.5 0 0 1 3.5 3.5 3.5 3.5 0 0 1-3.5 3.5m14.08 5.9a3.5 3.5 0 0 1-3.5-3.5 3.5 3.5 0 0 1 3.5-3.5 3.5 3.5 0 0 1 3.5 3.5 3.5 3.5 0 0 1-3.5 3.5m5.92 14.1a3.5 3.5 0 0 1-3.5-3.5 3.5 3.5 0 0 1 3.5-3.5 3.5 3.5 0 0 1 3.5 3.5 3.5 3.5 0 0 1-3.5 3.5m5.9-14.1a3.5 3.5 0 0 1-3.5-3.5 3.5 3.5 0 0 1 3.5-3.5 3.5 3.5 0 0 1 3.5 3.5 3.5 3.5 0 0 1-3.5 3.5m14.1-5.9a3.5 3.5 0 0 1-3.5-3.5 3.5 3.5 0 0 1 3.5-3.5 3.5 3.5 0 0 1 3.5 3.5 3.5 3.5 0 0 1-3.5 3.5m13.33 0a3.5 3.5 0 0 1-3.5-3.5 3.5 3.5 0 0 1 3.5-3.5 3.5 3.5 0 0 1 3.5 3.5 3.5 3.5 0 0 1-3.5 3.5m13.33 0a3.5 3.5 0 0 1-3.5-3.5 3.5 3.5 0 0 1 3.5-3.5 3.5 3.5 0 0 1 3.5 3.5 3.5 3.5 0 0 1-3.5 3.5m13.34 0a3.5 3.5 0 0 1-3.5-3.5 3.5 3.5 0 0 1 3.5-3.5 3.5 3.5 0 0 1 3.5 3.5 3.5 3.5 0 0 1-3.5 3.5m13.33 0a3.5 3.5 0 0 1-3.5-3.5 3.5 3.5 0 0 1 3.5-3.5 3.5 3.5 0 0 1 3.5 3.5 3.5 3.5 0 0 1-3.5 3.5m13.33 0a3.5 3.5 0 0 1-3.5-3.5 3.5 3.5 0 0 1 3.5-3.5 3.5 3.5 0 0 1 3.5 3.5 3.5 3.5 0 0 1-3.5 3.5m13.34 0a3.5 3.5 0 0 1-3.5-3.5 3.5 3.5 0 0 1 3.5-3.5 3.5 3.5 0 0 1 3.5 3.5 3.5 3.5 0 0 1-3.5 3.5m13.33 0a3.5 3.5 0 0 1-3.5-3.5 3.5 3.5 0 0 1 3.5-3.5 3.5 3.5 0 0 1 3.5 3.5 3.5 3.5 0 0 1-3.5 3.5m13.33 0a3.5 3.5 0 0 1-3.5-3.5 3.5 3.5 0 0 1 3.5-3.5 3.5 3.5 0 0 1 3.5 3.5 3.5 3.5 0 0 1-3.5 3.5m13.34 0a3.5 3.5 0 0 1-3.5-3.5 3.5 3.5 0 0 1 3.5-3.5 3.5 3.5 0 0 1 3.5 3.5 3.5 3.5 0 0 1-3.5 3.5m14.08-5.9a3.5 3.5 0 0 1-3.5-3.5 3.5 3.5 0 0 1 3.5-3.5 3.5 3.5 0 0 1 3.5 3.5 3.5 3.5 0 0 1-3.5 3.5m5.92-14.1a3.5 3.5 0 0 1-3.5-3.5 3.5 3.5 0 0 1 3.5-3.5 3.5 3.5 0 0 1 3.5 3.5 3.5 3.5 0 0 1-3.5 3.5m0 0a3.5 3.5 0 0 1-3.5-3.5 3.5 3.5 0 0 1 3.5-3.5 3.5 3.5 0 0 1 3.5 3.5 3.5 3.5 0 0 1-3.5 3.5m0-339.87a3.5 3.5 0 0 1-3.5-3.5 3.5 3.5 0 0 1 3.5-3.5 3.5 3.5 0 0 1 3.5 3.5 3.5 3.5 0 0 1-3.5 3.5m-5.9-14.08a3.5 3.5 0 0 1-3.5-3.5 3.5 3.5 0 0 1 3.5-3.5 3.5 3.5 0 0 1 3.5 3.5 3.5 3.5 0 0 1-3.5 3.5m-14.1-5.92a3.5 3.5 0 0 1-3.5-3.5 3.5 3.5 0 0 1 3.5-3.5 3.5 3.5 0 0 1 3.5 3.5 3.5 3.5 0 0 1-3.5 3.5m-13.34 0a3.5 3.5 0 0 1-3.5-3.5 3.5 3.5 0 0 1 3.5-3.5 3.5 3.5 0 0 1 3.5 3.5 3.5 3.5 0 0 1-3.5 3.5m-13.33 0a3.5 3.5 0 0 1-3.5-3.5 3.5 3.5 0 0 1 3.5-3.5 3.5 3.5 0 0 1 3.5 3.5 3.5 3.5 0 0 1-3.5 3.5m-13.33 0a3.5 3.5 0 0 1-3.5-3.5 3.5 3.5 0 0 1 3.5-3.5 3.5 3.5 0 0 1 3.5 3.5 3.5 3.5 0 0 1-3.5 3.5m-13.34 0a3.5 3.5 0 0 1-3.5-3.5 3.5 3.5 0 0 1 3.5-3.5 3.5 3.5 0 0 1 3.5 3.5 3.5 3.5 0 0 1-3.5 3.5m-13.33 0a3.5 3.5 0 0 1-3.5-3.5 3.5 3.5 0 0 1 3.5-3.5 3.5 3.5 0 0 1 3.5 3.5 3.5 3.5 0 0 1-3.5 3.5m-13.33 0a3.5 3.5 0 0 1-3.5-3.5 3.5 3.5 0 0 1 3.5-3.5 3.5 3.5 0 0 1 3.5 3.5 3.5 3.5 0 0 1-3.5 3.5m-13.34 0a3.5 3.5 0 0 1-3.5-3.5 3.5 3.5 0 0 1 3.5-3.5 3.5 3.5 0 0 1 3.5 3.5 3.5 3.5 0 0 1-3.5 3.5m-13.33 0a3.5 3.5 0 0 1-3.5-3.5 3.5 3.5 0 0 1 3.5-3.5 3.5 3.5 0 0 1 3.5 3.5 3.5 3.5 0 0 1-3.5 3.5m-13.33 0a3.5 3.5 0 0 1-3.5-3.5 3.5 3.5 0 0 1 3.5-3.5 3.5 3.5 0 0 1 3.5 3.5 3.5 3.5 0 0 1-3.5 3.5m-14.1-5.9a3.5 3.5 0 0 1-3.5-3.5 3.5 3.5 0 0 1 3.5-3.5 3.5 3.5 0 0 1 3.5 3.5 3.5 3.5 0 0 1-3.5 3.5m-5.9-14.1a3.5 3.5 0 0 1-3.5-3.5 3.5 3.5 0 0 1 3.5-3.5 3.5 3.5 0 0 1 3.5 3.5 3.5 3.5 0 0 1-3.5 3.5m-5.9 14.1a3.5 3.5 0 0 1-3.5-3.5 3.5 3.5 0 0 1 3.5-3.5 3.5 3.5 0 0 1 3.5 3.5 3.5 3.5 0 0 1-3.5 3.5m-14.1 5.9a3.5 3.5 0 0 1-3.5-3.5 3.5 3.5 0 0 1 3.5-3.5 3.5 3.5 0 0 1 3.5 3.5 3.5 3.5 0 0 1-3.5 3.5m-13.34 0a3.5 3.5 0 0 1-3.5-3.5 3.5 3.5 0 0 1 3.5-3.5 3.5 3.5 0 0 1 3.5 3.5 3.5 3.5 0 0 1-3.5 3.5m-13.33 0a3.5 3.5 0 0 1-3.5-3.5 3.5 3.5 0 0 1 3.5-3.5 3.5 3.5 0 0 1 3.5 3.5 3.5 3.5 0 0 1-3.5 3.5m-13.33 0a3.5 3.5 0 0 1-3.5-3.5 3.5 3.5 0 0 1 3.5-3.5 3.5 3.5 0 0 1 3.5 3.5 3.5 3.5 0 0 1-3.5 3.5m-13.34 0a3.5 3.5 0 0 1-3.5-3.5 3.5 3.5 0 0 1 3.5-3.5 3.5 3.5 0 0 1 3.5 3.5 3.5 3.5 0 0 1-3.5 3.5m-13.33 0a3.5 3.5 0 0 1-3.5-3.5 3.5 3.5 0 0 1 3.5-3.5 3.5 3.5 0 0 1 3.5 3.5 3.5 3.5 0 0 1-3.5 3.5m-13.33 0a3.5 3.5 0 0 1-3.5-3.5 3.5 3.5 0 0 1 3.5-3.5 3.5 3.5 0 0 1 3.5 3.5 3.5 3.5 0 0 1-3.5 3.5m-13.34 0a3.5 3.5 0 0 1-3.5-3.5 3.5 3.5 0 0 1 3.5-3.5 3.5 3.5 0 0 1 3.5 3.5 3.5 3.5 0 0 1-3.5 3.5m-13.33 0a3.5 3.5 0 0 1-3.5-3.5 3.5 3.5 0 0 1 3.5-3.5 3.5 3.5 0 0 1 3.5 3.5 3.5 3.5 0 0 1-3.5 3.5m-13.33 0a3.5 3.5 0 0 1-3.5-3.5 3.5 3.5 0 0 1 3.5-3.5 3.5 3.5 0 0 1 3.5 3.5 3.5 3.5 0 0 1-3.5 3.5m-14.1 5.9a3.5 3.5 0 0 1-3.5-3.5 3.5 3.5 0 0 1 3.5-3.5 3.5 3.5 0 0 1 3.5 3.5 3.5 3.5 0 0 1-3.5 3.5m-5.9 14.1a3.5 3.5 0 0 1-3.5-3.5 3.5 3.5 0 0 1 3.5-3.5 3.5 3.5 0 0 1 3.5 3.5 3.5 3.5 0 0 1-3.5 3.5" fill="#635dff"/><path d="M461.75 835.77a3.5 3.5 0 0 1-3.5-3.5 3.5 3.5 0 0 1 3.5-3.5 3.5 3.5 0 0 1 3.5 3.5 3.5 3.5 0 0 1-3.5 3.5m5.9 14.1a3.5 3.5 0 0 1-3.5-3.5 3.5 3.5 0 0 1 3.5-3.5 3.5 3.5 0 0 1 3.5 3.5 3.5 3.5 0 0 1-3.5 3.5m14.1 5.9a3.5 3.5 0 0 1-3.5-3.5 3.5 3.5 0 0 1 3.5-3.5 3.5 3.5 0 0 1 3.5 3.5 3.5 3.5 0 0 1-3.5 3.5m13.33 0a3.5 3.5 0 0 1-3.5-3.5 3.5 3.5 0 0 1 3.5-3.5 3.5 3.5 0 0 1 3.5 3.5 3.5 3.5 0 0 1-3.5 3.5m13.33 0a3.5 3.5 0 0 1-3.5-3.5 3.5 3.5 0 0 1 3.5-3.5 3.5 3.5 0 0 1 3.5 3.5 3.5 3.5 0 0 1-3.5 3.5m13.35 0a3.5 3.5 0 0 1-3.5-3.5 3.5 3.5 0 0 1 3.5-3.5 3.5 3.5 0 0 1 3.5 3.5 3.5 3.5 0 0 1-3.5 3.5m13.33 0a3.5 3.5 0 0 1-3.5-3.5 3.5 3.5 0 0 1 3.5-3.5 3.5 3.5 0 0 1 3.5 3.5 3.5 3.5 0 0 1-3.5 3.5m13.33 0a3.5 3.5 0 0 1-3.5-3.5 3.5 3.5 0 0 1 3.5-3.5 3.5 3.5 0 0 1 3.5 3.5 3.5 3.5 0 0 1-3.5 3.5m13.35 0a3.5 3.5 0 0 1-3.5-3.5 3.5 3.5 0 0 1 3.5-3.5 3.5 3.5 0 0 1 3.5 3.5 3.5 3.5 0 0 1-3.5 3.5m13.33 0a3.5 3.5 0 0 1-3.5-3.5 3.5 3.5 0 0 1 3.5-3.5 3.5 3.5 0 0 1 3.5 3.5 3.5 3.5 0 0 1-3.5 3.5m13.33 0a3.5 3.5 0 0 1-3.5-3.5 3.5 3.5 0 0 1 3.5-3.5 3.5 3.5 0 0 1 3.5 3.5 3.5 3.5 0 0 1-3.5 3.5m13.35 0a3.5 3.5 0 0 1-3.5-3.5 3.5 3.5 0 0 1 3.5-3.5 3.5 3.5 0 0 1 3.5 3.5 3.5 3.5 0 0 1-3.5 3.5m14.08 5.9a3.5 3.5 0 0 1-3.5-3.5 3.5 3.5 0 0 1 3.5-3.5 3.5 3.5 0 0 1 3.5 3.5 3.5 3.5 0 0 1-3.5 3.5m5.92 14.1a3.5 3.5 0 0 1-3.5-3.5 3.5 3.5 0 0 1 3.5-3.5 3.5 3.5 0 0 1 3.5 3.5 3.5 3.5 0 0 1-3.5 3.5m5.9-14.1a3.5 3.5 0 0 1-3.5-3.5 3.5 3.5 0 0 1 3.5-3.5 3.5 3.5 0 0 1 3.5 3.5 3.5 3.5 0 0 1-3.5 3.5m14.1-5.9a3.5 3.5 0 0 1-3.5-3.5 3.5 3.5 0 0 1 3.5-3.5 3.5 3.5 0 0 1 3.5 3.5 3.5 3.5 0 0 1-3.5 3.5m13.33 0a3.5 3.5 0 0 1-3.5-3.5 3.5 3.5 0 0 1 3.5-3.5 3.5 3.5 0 0 1 3.5 3.5 3.5 3.5 0 0 1-3.5 3.5m13.33 0a3.5 3.5 0 0 1-3.5-3.5 3.5 3.5 0 0 1 3.5-3.5 3.5 3.5 0 0 1 3.5 3.5 3.5 3.5 0 0 1-3.5 3.5m13.35 0a3.5 3.5 0 0 1-3.5-3.5 3.5 3.5 0 0 1 3.5-3.5 3.5 3.5 0 0 1 3.5 3.5 3.5 3.5 0 0 1-3.5 3.5m13.33 0a3.5 3.5 0 0 1-3.5-3.5 3.5 3.5 0 0 1 3.5-3.5 3.5 3.5 0 0 1 3.5 3.5 3.5 3.5 0 0 1-3.5 3.5m13.33 0a3.5 3.5 0 0 1-3.5-3.5 3.5 3.5 0 0 1 3.5-3.5 3.5 3.5 0 0 1 3.5 3.5 3.5 3.5 0 0 1-3.5 3.5m13.35 0a3.5 3.5 0 0 1-3.5-3.5 3.5 3.5 0 0 1 3.5-3.5 3.5 3.5 0 0 1 3.5 3.5 3.5 3.5 0 0 1-3.5 3.5m13.33 0a3.5 3.5 0 0 1-3.5-3.5 3.5 3.5 0 0 1 3.5-3.5 3.5 3.5 0 0 1 3.5 3.5 3.5 3.5 0 0 1-3.5 3.5m13.33 0a3.5 3.5 0 0 1-3.5-3.5 3.5 3.5 0 0 1 3.5-3.5 3.5 3.5 0 0 1 3.5 3.5 3.5 3.5 0 0 1-3.5 3.5m13.35 0a3.5 3.5 0 0 1-3.5-3.5 3.5 3.5 0 0 1 3.5-3.5 3.5 3.5 0 0 1 3.5 3.5 3.5 3.5 0 0 1-3.5 3.5m14.08-5.9a3.5 3.5 0 0 1-3.5-3.5 3.5 3.5 0 0 1 3.5-3.5 3.5 3.5 0 0 1 3.5 3.5 3.5 3.5 0 0 1-3.5 3.5m5.92-14.1a3.5 3.5 0 0 1-3.5-3.5 3.5 3.5 0 0 1 3.5-3.5 3.5 3.5 0 0 1 3.5 3.5 3.5 3.5 0 0 1-3.5 3.5m0 0a3.5 3.5 0 0 1-3.5-3.5 3.5 3.5 0 0 1 3.5-3.5 3.5 3.5 0 0 1 3.5 3.5 3.5 3.5 0 0 1-3.5 3.5m0-339.87a3.5 3.5 0 0 1-3.5-3.5 3.5 3.5 0 0 1 3.5-3.5 3.5 3.5 0 0 1 3.5 3.5 3.5 3.5 0 0 1-3.5 3.5m-5.9-14.08a3.5 3.5 0 0 1-3.5-3.5 3.5 3.5 0 0 1 3.5-3.5 3.5 3.5 0 0 1 3.5 3.5 3.5 3.5 0 0 1-3.5 3.5m-14.1-5.92a3.5 3.5 0 0 1-3.5-3.5 3.5 3.5 0 0 1 3.5-3.5 3.5 3.5 0 0 1 3.5 3.5 3.5 3.5 0 0 1-3.5 3.5m-13.34 0a3.5 3.5 0 0 1-3.5-3.5 3.5 3.5 0 0 1 3.5-3.5 3.5 3.5 0 0 1 3.5 3.5 3.5 3.5 0 0 1-3.5 3.5m-13.32 0a3.5 3.5 0 0 1-3.5-3.5 3.5 3.5 0 0 1 3.5-3.5 3.5 3.5 0 0 1 3.5 3.5 3.5 3.5 0 0 1-3.5 3.5m-13.33 0a3.5 3.5 0 0 1-3.5-3.5 3.5 3.5 0 0 1 3.5-3.5 3.5 3.5 0 0 1 3.5 3.5 3.5 3.5 0 0 1-3.5 3.5m-13.34 0a3.5 3.5 0 0 1-3.5-3.5 3.5 3.5 0 0 1 3.5-3.5 3.5 3.5 0 0 1 3.5 3.5 3.5 3.5 0 0 1-3.5 3.5m-13.32 0a3.5 3.5 0 0 1-3.5-3.5 3.5 3.5 0 0 1 3.5-3.5 3.5 3.5 0 0 1 3.5 3.5 3.5 3.5 0 0 1-3.5 3.5m-13.33 0a3.5 3.5 0 0 1-3.5-3.5 3.5 3.5 0 0 1 3.5-3.5 3.5 3.5 0 0 1 3.5 3.5 3.5 3.5 0 0 1-3.5 3.5m-13.34 0a3.5 3.5 0 0 1-3.5-3.5 3.5 3.5 0 0 1 3.5-3.5 3.5 3.5 0 0 1 3.5 3.5 3.5 3.5 0 0 1-3.5 3.5m-13.32 0a3.5 3.5 0 0 1-3.5-3.5 3.5 3.5 0 0 1 3.5-3.5 3.5 3.5 0 0 1 3.5 3.5 3.5 3.5 0 0 1-3.5 3.5m-13.33 0a3.5 3.5 0 0 1-3.5-3.5 3.5 3.5 0 0 1 3.5-3.5 3.5 3.5 0 0 1 3.5 3.5 3.5 3.5 0 0 1-3.5 3.5m-14.1-5.9a3.5 3.5 0 0 1-3.5-3.5 3.5 3.5 0 0 1 3.5-3.5 3.5 3.5 0 0 1 3.5 3.5 3.5 3.5 0 0 1-3.5 3.5m-5.9-14.1a3.5 3.5 0 0 1-3.5-3.5 3.5 3.5 0 0 1 3.5-3.5 3.5 3.5 0 0 1 3.5 3.5 3.5 3.5 0 0 1-3.5 3.5m-5.9 14.1a3.5 3.5 0 0 1-3.5-3.5 3.5 3.5 0 0 1 3.5-3.5 3.5 3.5 0 0 1 3.5 3.5 3.5 3.5 0 0 1-3.5 3.5m-14.1 5.9a3.5 3.5 0 0 1-3.5-3.5 3.5 3.5 0 0 1 3.5-3.5 3.5 3.5 0 0 1 3.5 3.5 3.5 3.5 0 0 1-3.5 3.5m-13.34 0a3.5 3.5 0 0 1-3.5-3.5 3.5 3.5 0 0 1 3.5-3.5 3.5 3.5 0 0 1 3.5 3.5 3.5 3.5 0 0 1-3.5 3.5m-13.32 0a3.5 3.5 0 0 1-3.5-3.5 3.5 3.5 0 0 1 3.5-3.5 3.5 3.5 0 0 1 3.5 3.5 3.5 3.5 0 0 1-3.5 3.5m-13.33 0a3.5 3.5 0 0 1-3.5-3.5 3.5 3.5 0 0 1 3.5-3.5 3.5 3.5 0 0 1 3.5 3.5 3.5 3.5 0 0 1-3.5 3.5m-13.34 0a3.5 3.5 0 0 1-3.5-3.5 3.5 3.5 0 0 1 3.5-3.5 3.5 3.5 0 0 1 3.5 3.5 3.5 3.5 0 0 1-3.5 3.5m-13.32 0a3.5 3.5 0 0 1-3.5-3.5 3.5 3.5 0 0 1 3.5-3.5 3.5 3.5 0 0 1 3.5 3.5 3.5 3.5 0 0 1-3.5 3.5m-13.33 0a3.5 3.5 0 0 1-3.5-3.5 3.5 3.5 0 0 1 3.5-3.5 3.5 3.5 0 0 1 3.5 3.5 3.5 3.5 0 0 1-3.5 3.5m-13.34 0a3.5 3.5 0 0 1-3.5-3.5 3.5 3.5 0 0 1 3.5-3.5 3.5 3.5 0 0 1 3.5 3.5 3.5 3.5 0 0 1-3.5 3.5m-13.32 0a3.5 3.5 0 0 1-3.5-3.5 3.5 3.5 0 0 1 3.5-3.5 3.5 3.5 0 0 1 3.5 3.5 3.5 3.5 0 0 1-3.5 3.5m-13.33 0a3.5 3.5 0 0 1-3.5-3.5 3.5 3.5 0 0 1 3.5-3.5 3.5 3.5 0 0 1 3.5 3.5 3.5 3.5 0 0 1-3.5 3.5m-14.1 5.9a3.5 3.5 0 0 1-3.5-3.5 3.5 3.5 0 0 1 3.5-3.5 3.5 3.5 0 0 1 3.5 3.5 3.5 3.5 0 0 1-3.5 3.5m-5.9 14.1a3.5 3.5 0 0 1-3.5-3.5 3.5 3.5 0 0 1 3.5-3.5 3.5 3.5 0 0 1 3.5 3.5 3.5 3.5 0 0 1-3.5 3.5" fill="#fc9432"/><path d="M660.77 679.84l-8.56 15.34-2.56-1.44 8.53-15.28.6-1.23h3.3zm-45.33-47.93l13.7 1.05 8.9 1.26 6.2 1.3 4.53 1.27 3.44 1.22 2.7 1.14 2.2 1.1 1.77 1.05 1.5 1 1.25 1 1.08.96.93.95.82.95.7.94.14.2h-3.76l-.08-.1-.8-.8-.93-.85-1.1-.86-1.34-.92-1.63-.96-2-1-2.52-1.08-3.27-1.15-4.35-1.22-6-1.26-8.72-1.24-13.48-1.02-21.47-.2.03-2.96z" stroke="#fc9432" stroke-width=".05" fill="#fc9432"/><path d="M593.9 631.7v2.95h-1.54v-2.97z" fill="#fc9432"/><path stroke="#fc9432" stroke-width=".05" fill="#fc9432"/><path d="M656.84 699.3l-12.74 7.93-.5-15z" fill="#fff"/><path d="M659.8 699.2l-17.1 10.63-.65-20.1zm-14.3 5.43l8.4-5.22-8.73-4.66z" stroke="#fc9432" stroke-width=".05" fill="#fc9432"/><path d="M615.5 662.26A13.47 13.47 0 0 1 629 648.8h74.57a13.47 13.47 0 0 1 13.47 13.46 13.47 13.47 0 0 1-13.47 13.47H629a13.47 13.47 0 0 1-13.5-13.47z" stroke="#fc9432" stroke-width="3" fill-opacity="0"/><use xlink:href="#a" transform="matrix(1,0,0,1,627.5154632015551,652.791649932019) translate(0 14.991319444444445)"/><use xlink:href="#b" transform="matrix(1,0,0,1,627.5154632015551,652.791649932019) translate(16.588541666666668 14.991319444444445)"/><path d="M744.1 644.84l-10.8 20.22-10.15 17.2-8.93 13.78-7.58 10.7-6.28 8.12-5.2 6.15-4.28 4.7-3.58 3.58-3 2.77-2.57 2.17-2.2 1.7-.67.5-1.7-2.42.6-.43 2.1-1.64 2.48-2.1 2.9-2.68 3.5-3.5 4.2-4.6 5.12-6.05 6.2-8.03 7.5-10.58 8.88-13.7 10.08-17.1 10.76-20.1 7.97-16.5h3.28zm-5.06-237.15l3.4.17 3.15.3 2.9.4 2.67.47 2.5.56 2.36.63 2.2.7 2.1.73 1.96.8 1.87.87 1.8.9 1.7.97 1.63 1 1.58 1.08 1.52 1.13 1.46 1.2 1.42 1.24 1.38 1.32 1.33 1.4 1.28 1.46 1.27 1.55 1.22 1.66 1.2 1.75 1.16 1.88 1.13 2 1.1 2.16 1.07 2.32 1.02 2.5.98 2.74.94 2.97.87 3.25.8 3.58.7 3.97.62 4.4.46 4.95.3 5.56.06 6.3-.22 7.18-.6 8.25-1.1 9.5-1.76 11.02-2.58 12.82-3.66 14.87-4.98 17.16-5.04 14.97h-3.1l5.32-15.85 4.95-17.03 3.64-14.76 2.56-12.7 1.73-10.9 1.08-9.4.6-8.1.23-7.07-.06-6.18-.3-5.44-.44-4.8-.6-4.3-.68-3.83-.78-3.47-.84-3.13-.9-2.85-.93-2.6-.98-2.4-1-2.22-1.06-2.04-1.07-1.9-1.1-1.77-1.13-1.67-1.15-1.55-1.2-1.46-1.2-1.38-1.25-1.3-1.3-1.23-1.3-1.15-1.38-1.1-1.43-1.06-1.47-1-1.54-.96-1.6-.9-1.67-.86-1.78-.8-1.86-.76-1.96-.7-2.1-.66-2.22-.6-2.4-.53-2.55-.46-2.78-.38-3-.3-3.3-.16-3.62-.03-4 .13-4.44.33-5 .58-5.6.9-6.42 1.3-7.37 1.82-8.56 2.5-10.07 3.4-12 4.63-14.55 6.3-17.9 8.68-1.54.82-1.38-2.6 1.58-.85 18-8.74 14.66-6.35 12.13-4.67 10.2-3.44 8.67-2.53 7.5-1.84 6.52-1.32 5.75-.92 5.1-.6 4.58-.33 4.12-.15z" stroke="#fc9432" stroke-width=".05" fill="#fc9432"/><path d="M678.9 736.38l-1.23.88-1.77-2.36 1.28-.92z" fill="#fc9432"/><path stroke="#fc9432" stroke-width=".05" fill="#fc9432"/><path d="M639.4 448.02l-15-.53 7.95-12.73z" fill="#fff"/><path d="M641.9 449.58l-20.1-.7 10.65-17.05zM627 446.1l9.88.36-4.64-8.74z" stroke="#fc9432" stroke-width=".05" fill="#fc9432"/><path d="M718 600.66a24.84 24.84 0 0 1 24.82-24.83h39.8a24.84 24.84 0 0 1 24.84 24.83 24.84 24.84 0 0 1-24.84 24.84h-39.8A24.84 24.84 0 0 1 718 600.66z" stroke="#fc9432" stroke-width="3" fill-opacity="0"/><use xlink:href="#c" transform="matrix(1,0,0,1,729.9867416083443,579.8259599964448) translate(0 14.991319444444445)"/><use xlink:href="#d" transform="matrix(1,0,0,1,729.9867416083443,579.8259599964448) translate(0 37.72048611111111)"/><use xlink:href="#e" transform="matrix(1,0,0,1,729.9867416083443,579.8259599964448) translate(24.774305555555557 37.72048611111111)"/><path d="M288.82 612.9a50 50 0 0 1 50-50h201.04a50 50 0 0 1 50 50v40.5a50 50 0 0 1-50 50H338.82a50 50 0 0 1-50-50z" stroke="#00c2a8" stroke-width="5" fill="#c3f7c8"/><path d="M357.9 570.3a6 6 0 0 1 6-6h150.24a6 6 0 0 1 6 6v23.2a6 6 0 0 1-6 6H363.9a6 6 0 0 1-6-6z" fill="none"/><use xlink:href="#f" transform="matrix(1,0,0,1,357.9028119467383,564.3113123830595) translate(20.67041015625 26.07421875)"/><use xlink:href="#g" transform="matrix(1,0,0,1,357.9028119467383,564.3113123830595) translate(72.65771484375 26.07421875)"/><path d="M363.28 510.3a6 6 0 0 1 6-6H512.1a6 6 0 0 1 6 6v48a6 6 0 0 1-6 6H369.28a6 6 0 0 1-6-6z" fill="none"/><use xlink:href="#h" transform="matrix(1,0,0,1,363.2755742241088,504.31131238305954) translate(-4.86328125 43.232421875)"/><path d="M203.17 674.54l.06 1.73.16 1.82.28 1.9.42 2.05.6 2.2.8 2.35 1.02 2.55 1.32 2.8 1.68 3.07 2.12 3.4 2.7 3.82 2.2 2.74-2.3 1.85-2.25-2.8-2.8-3.96-2.23-3.56-1.76-3.2-1.4-2.96-1.08-2.72-.85-2.52-.64-2.36-.46-2.2-.3-2.1-.2-2-.05-1.9.02-.73h2.95zm81.68-39.87l-12 .24-11.14.9-9.22 1.27-7.66 1.52-6.37 1.65-5.33 1.73-4.48 1.74-.33.15h-6.74l2-1.05 3.93-1.8 4.63-1.82 5.5-1.78 6.53-1.7 7.83-1.56 9.4-1.3 11.3-.9 12.1-.24z" stroke="#635dff" stroke-width=".05" fill="#635dff"/><path d="M286.32 634.63l-1.5.04-.07-2.95 1.57-.04z" fill="#635dff"/><path stroke="#635dff" stroke-width=".05" fill="#635dff"/><path d="M225.34 716.4l-14.38-4.26 10.9-10.32z" fill="#fff"/><path d="M227.37 718.55l-19.28-5.73L222.7 699zm-13.54-7.1l9.48 2.82-2.3-9.62z" stroke="#635dff" stroke-width=".05" fill="#635dff"/><path d="M155.63 658.84a13.47 13.47 0 0 1 13.47-13.47h74.58a13.47 13.47 0 0 1 13.47 13.47 13.47 13.47 0 0 1-13.47 13.47H169.1a13.47 13.47 0 0 1-13.47-13.46z" stroke="#635dff" stroke-width="3" fill-opacity="0"/><use xlink:href="#i" transform="matrix(1,0,0,1,167.6270286992949,649.373503393148) translate(0 14.991319444444445)"/><use xlink:href="#j" transform="matrix(1,0,0,1,167.6270286992949,649.373503393148) translate(16.588541666666668 14.991319444444445)"/><path d="M446.66 825.43l-27.25 34.05-4.65 5.03-3.98 3.97-3.63 3.3-3.4 2.86-3.27 2.5-3.2 2.26-3.14 2.02-3.15 1.84-3.18 1.68-3.22 1.54-3.3 1.4-3.4 1.3-3.52 1.17-3.68 1.05-3.87.93-4.1.8-4.37.68-4.7.54-5.1.35-5.56.13-6.14-.1-6.84-.38-7.72-.77-8.8-1.25-10.17-1.88-11.98-2.74-14.37-3.92-3.82-1.22.9-2.8 3.76 1.2 14.24 3.9 11.86 2.7 10.06 1.86 8.68 1.24 7.58.75 6.72.4 6 .08 5.46-.14 4.97-.34 4.58-.5 4.25-.66 3.98-.8 3.75-.9 3.56-1 3.4-1.14 3.28-1.24 3.2-1.36 3.1-1.5 3.06-1.62 3.04-1.78 3.05-1.96 3.1-2.18 3.16-2.44 3.3-2.77 3.53-3.22 3.9-3.87 4.54-4.9 27.2-34 4.03-4.74h3.87zm106.47-51.4l-7.06.2-7.65.5-6.94.78-6.33 1-5.84 1.14-5.4 1.3-5.08 1.45-4.78 1.57-4.53 1.72-4.33 1.84-4.17 2-2.54 1.34h-5.98l3.03-1.77 4.17-2.2 4.3-2.04 4.43-1.9 4.65-1.77 4.9-1.63 5.2-1.48 5.53-1.35 5.96-1.17 6.46-1 7.05-.78 7.78-.53 7.12-.2z" stroke="#635dff" stroke-width=".05" fill="#635dff"/><path d="M554.6 774l-1.5.03-.1-2.95 1.6-.04z" fill="#635dff"/><path stroke="#635dff" stroke-width=".05" fill="#635dff"/><path d="M269.84 887.83L259.8 876.7l14.66-3.14z" fill="#fff"/><path d="M270.46 890.7l-13.48-14.9 19.67-4.22zm-7.86-13.1l6.62 7.35 3.05-9.42z" stroke="#635dff" stroke-width=".05" fill="#635dff"/><path d="M393.88 803.85a13.47 13.47 0 0 1 13.47-13.47h114.97a13.47 13.47 0 0 1 13.47 13.47 13.47 13.47 0 0 1-13.48 13.47H407.34a13.47 13.47 0 0 1-13.46-13.47z" stroke="#635dff" stroke-width="3" fill-opacity="0"/><use xlink:href="#k" transform="matrix(1,0,0,1,405.87495553099467,794.3833100633614) translate(0 14.991319444444445)"/><use xlink:href="#l" transform="matrix(1,0,0,1,405.87495553099467,794.3833100633614) translate(58.13368055555556 14.991319444444445)"/><use xlink:href="#m" transform="matrix(1,0,0,1,405.87495553099467,794.3833100633614) translate(82.40451388888889 14.991319444444445)"/><path d="M140.27 480.8a6 6 0 0 1 6-6H367.6a6 6 0 0 1 6 6v48a6 6 0 0 1-6 6H146.27a6 6 0 0 1-6-6z" fill="none"/><use xlink:href="#n" transform="matrix(1,0,0,1,140.2685009142051,474.79557610929135) translate(20.935546875 43.232421875)"/><use xlink:href="#o" transform="matrix(1,0,0,1,140.2685009142051,474.79557610929135) translate(109.333984375 43.232421875)"/><path d="M505.08 480.8a6 6 0 0 1 6-6H732.4a6 6 0 0 1 6 6v48a6 6 0 0 1-6 6H511.1a6 6 0 0 1-6-6z" fill="none"/><use xlink:href="#p" transform="matrix(1,0,0,1,505.07899938007745,474.79557610929135) translate(62.078125 43.232421875)"/><path d="M404.5 592.02a6 6 0 0 1 6-6h57.03a6 6 0 0 1 6 6v23.18a6 6 0 0 1-6 6H410.5a6 6 0 0 1-6-6z" fill="none"/><use xlink:href="#q" transform="matrix(1,0,0,1,404.5106489561636,586.0233224479222) translate(29.9599609375 26.07421875)"/><path d="M355.2 414.12l-18.18-1.6-13.52-.52-10.06.12-7.83.5-6.28.7-5.17.86-4.33.93-3.68 1-3.17 1.04-2.77 1.05-2.43 1.06-2.16 1.08-1.93 1.1-1.74 1.1-1.58 1.1-1.44 1.14-1.3 1.14-1.22 1.17-1.1 1.17-1.04 1.2-.96 1.26-.9 1.28-.22.4" stroke="#635dff" stroke-width="3" stroke-linejoin="round" fill="none"/><path d="M356.8 412.8l-.16 2.2h.4l.05.77-2.07-.18.26-2.95z" stroke="#635dff" stroke-width=".05" fill="#635dff"/><path d="M257.84 446.04l-3.23-14.65 14.3 4.52z" stroke="#635dff" stroke-width="3" fill="#fff"/><path d="M121.94 595.58a30 30 0 0 1 30-30h72a30 30 0 0 1 30 30 30 30 0 0 1-30 30h-72a30 30 0 0 1-30-30z" stroke="#635dff" stroke-width="5" fill="#9391ff"/><use xlink:href="#r" transform="matrix(1,0,0,1,126.93516758087185,570.582104892553) translate(9.541666666666664 31.861979166666668)"/><use xlink:href="#s" transform="matrix(1,0,0,1,126.93516758087185,570.582104892553) translate(51.96354166666667 31.861979166666668)"/><path d="M118.5 594.4l-5.64-7.08-5.5-7.54-4.6-6.93-3.9-6.4-3.27-5.96-2.78-5.57-2.33-5.23-1.97-4.93-1.63-4.68-1.35-4.46-1.1-4.26-.87-4.08-.67-3.94-.47-3.8-.3-3.7-.16-3.6v-3.5l.13-3.45.3-3.38.4-3.34.56-3.3.7-3.3.84-3.25.98-3.27 1.14-3.26 1.3-3.3 1.46-3.3 1.66-3.34 1.86-3.38 2.08-3.44 2.32-3.5 2.6-3.58 2.9-3.67 3.25-3.77 3.64-3.88 4.07-4 4.6-4.14 5.17-4.27 5.86-4.45 6.64-4.62 7.55-4.8 8.6-4.98 9.87-5.15 11.3-5.33 12.98-5.45 14.87-5.54 17-5.52 19.35-5.4 21.76-5.1 24.1-4.62L310 369.8l27.6-2.93 28.25-1.8 27.9-.6 26.63.54 24.68 1.54 22.3 2.32 19.78 2.9 17.33 3.28 15.06 3.52 13.04 3.63 11.28 3.64 9.77 3.62 8.5 3.55 7.37 3.48 6.45 3.37 5.66 3.26 5 3.17 4.4 3.06 3.93 2.97 3.48 2.87 3.13 2.8 2.8 2.73 2.5 2.66 2.24 2.6 2.03 2.56 1.83 2.5 1.4 2.1" stroke="#fc9432" stroke-width="3" stroke-linejoin="round" fill="none"/><path d="M119.62 598.08l.02.13-.1-.12zm-.36-.34l-1.95-2.45 2.3-1.83z" stroke="#fc9432" stroke-width=".05" fill="#fc9432"/><path d="M620.47 446.2l-12.32-8.57 13.57-6.4z" stroke="#fc9432" stroke-width="3" fill="#fff"/><path d="M359.34 412.5a30 30 0 0 1 30-30h100a30 30 0 0 1 30 30 30 30 0 0 1-30 30h-100a30 30 0 0 1-30-30z" stroke="#635dff" stroke-width="5" fill="#9391ff"/><use xlink:href="#t" transform="matrix(1,0,0,1,364.34041681380813,387.4879758863982) translate(8.020833333333329 31.861979166666668)"/><use xlink:href="#u" transform="matrix(1,0,0,1,364.34041681380813,387.4879758863982) translate(90.2734375 31.861979166666668)"/><path d="M311.43 617.5a6 6 0 0 1 6-6h246.52a6 6 0 0 1 6 6v68a6 6 0 0 1-6 6H317.43a6 6 0 0 1-6-6z" fill="none"/><use xlink:href="#v" transform="matrix(1,0,0,1,311.4275295248142,611.5001080640095) translate(31.619140625 21.9248046875)"/><use xlink:href="#w" transform="matrix(1,0,0,1,311.4275295248142,611.5001080640095) translate(99.79296875 21.9248046875)"/><use xlink:href="#x" transform="matrix(1,0,0,1,311.4275295248142,611.5001080640095) translate(136.3173828125 21.9248046875)"/><use xlink:href="#y" transform="matrix(1,0,0,1,311.4275295248142,611.5001080640095) translate(167.560546875 21.9248046875)"/><use xlink:href="#z" transform="matrix(1,0,0,1,311.4275295248142,611.5001080640095) translate(116.87451171875 49.6259765625)"/><use xlink:href="#A" transform="matrix(1,0,0,1,311.4275295248142,611.5001080640095) translate(8.74853515625 77.3271484375)"/><use xlink:href="#w" transform="matrix(1,0,0,1,311.4275295248142,611.5001080640095) translate(84.26025390625 77.3271484375)"/><use xlink:href="#x" transform="matrix(1,0,0,1,311.4275295248142,611.5001080640095) translate(120.78466796875 77.3271484375)"/><use xlink:href="#B" transform="matrix(1,0,0,1,311.4275295248142,611.5001080640095) translate(152.02783203125 77.3271484375)"/><use xlink:href="#C" transform="matrix(1,0,0,1,311.4275295248142,611.5001080640095) translate(214.12060546875 77.3271484375)"/><path d="M313.43 651.5h6.17m8.23 0h12.34m8.23 0h12.34m8.23 0h12.34m8.24 0h12.34m8.23 0h6.18M465.73 651.5h6.17m8.23 0h12.35m8.22 0h12.35m8.23 0h12.34m8.23 0h12.34m8.22 0h6.17" stroke="#00c2a8" stroke-width="4" stroke-linecap="round" fill="none"/><path d="M85.47 537.1l3.14 25.8 3.92 23.7 4.5 21.7 5 19.78 5.33 17.96 5.58 16.24 5.7 14.6 5.74 13.05 5.7 11.62 5.6 10.3 5.46 9.1 5.25 7.97 5.03 6.98 4.8 6.1 4.52 5.3 4.28 4.6 4.03 3.97 3.8 3.44 3.54 2.98 3.34 2.56 3.14 2.2 2.94 1.88 2.76 1.6 2.6 1.38 1.12.53-1.27 2.67-1.2-.56-2.7-1.43-2.86-1.67-3.04-1.95-3.24-2.26-3.43-2.63-3.65-3.06-3.88-3.52-4.12-4.07-4.36-4.7-4.6-5.38-4.87-6.2-5.1-7.08-5.32-8.1-5.5-9.18-5.67-10.4-5.76-11.75-5.8-13.17-5.74-14.7-5.62-16.36-5.37-18.08-5.02-19.9-4.54-21.83-3.9-23.82-3.16-25.9-1.92-23.33 2.94-.25z" stroke="#fc9432" stroke-width=".05" fill="#fc9432"/><path d="M192.98 772.78v3.27l-2.02-.97 1.27-2.66z" fill="#fc9432"/><path stroke="#fc9432" stroke-width=".05" fill="#fc9432"/><path d="M83.57 513.86l-2.94.24-.13-1.53 2.94-.24z" stroke="#fc9432" stroke-width=".05" fill="#fc9432"/><path d="M682.9 796.64a15 15 0 0 0 3-9V757.4a15 15 0 0 0-3-9l-18.16-24.2a17.83 17.83 0 0 0-7.64-5.87l-30.96-12.38a12.5 12.5 0 0 0-9.3 0l-30.95 12.38a17.83 17.83 0 0 0-7.66 5.86l-18.15 24.2a15 15 0 0 0-3 9v30.24a15 15 0 0 0 3 9l18.14 24.2a17.83 17.83 0 0 0 7.65 5.86l30.95 12.38a12.5 12.5 0 0 0 9.3 0l30.95-12.38a17.83 17.83 0 0 0 7.64-5.86z" stroke="#fc9432" stroke-width="5" fill="#ffe6a1"/><g><use xlink:href="#D" transform="matrix(1,0,0,1,557.0938320246892,704.0908238703423) translate(29.255859375 80.921875)"/></g><path d="M260.92 705.9a8 8 0 0 0-8.48 0l-52.72 32.94a9.02 9.02 0 0 0-4.24 7.65v51.2a9.02 9.02 0 0 0 4.24 7.64l52.72 32.95a8 8 0 0 0 8.48 0l52.72-32.96a9.02 9.02 0 0 0 4.24-7.65v-51.2a9.02 9.02 0 0 0-4.24-7.66z" stroke="#635dff" stroke-width="5" fill="#9391ff"/><g><use xlink:href="#E" transform="matrix(1,0,0,1,195.48333355881664,703.2408238703422) translate(26.75390625 81.421875)"/></g><defs><path fill="#fc9432" d="M28-165h167v-1028H28v-164h505v164H362v1028h171V0H28v-165" id="F"/><path fill="#fc9432" d="M439-1189c-122 0-183 48-183 143v76h183v165H256V0H89v-805H13v-165h76c-8-144 16-237 103-308 64-53 146-79 247-79v168" id="G"/><g id="a"><use transform="matrix(0.008680555555555556,0,0,0.008680555555555556,0,0)" xlink:href="#F"/><use transform="matrix(0.008680555555555556,0,0,0.008680555555555556,5.572916666666667,0)" xlink:href="#G"/></g><path fill="#fc9432" d="M530-826c-179 0-312 160-312 342V0H53v-970h165v127c78-99 182-148 312-148 289 0 456 203 456 499V0H819v-484c2-203-95-342-289-342" id="H"/><path fill="#fc9432" d="M816-616c-46-109-154-210-294-210-133 0-258 109-301 210h595zM31-484c0-260 230-507 491-507 282 0 495 254 487 541H196c10 148 163 311 326 306 147-5 277-104 326-215l166 28C947-150 753 16 522 21 260 27 31-223 31-484" id="I"/><path fill="#fc9432" d="M860-484c0-175-137-342-310-342-172 0-345 169-345 342s167 340 340 340c172 0 315-166 315-340zm-820 0c0-260 250-507 510-507 131 0 236 50 315 149v-515h167V0H865v-128C782-29 675 21 545 21 285 21 40-224 40-484" id="J"/><g id="b"><use transform="matrix(0.008680555555555556,0,0,0.008680555555555556,0,0)" xlink:href="#H"/><use transform="matrix(0.008680555555555556,0,0,0.008680555555555556,9.956597222222223,0)" xlink:href="#I"/><use transform="matrix(0.008680555555555556,0,0,0.008680555555555556,19.982638888888893,0)" xlink:href="#I"/><use transform="matrix(0.008680555555555556,0,0,0.008680555555555556,30.00868055555556,0)" xlink:href="#J"/><use transform="matrix(0.008680555555555556,0,0,0.008680555555555556,40.46006944444444,0)" xlink:href="#I"/><use transform="matrix(0.008680555555555556,0,0,0.008680555555555556,50.486111111111114,0)" xlink:href="#J"/></g><path fill="#fc9432" d="M32-990c0-232 243-390 485-390 230 0 384 80 460 242 25 53 37 112 37 177H848c0-169-110-254-331-254-175 0-321 66-320 224 0 68 25 124 82 157 72 43 313 83 425 114 184 50 303 136 310 344 8 234-251 397-495 397C251 21 32-142 31-398h166c5 169 112 254 321 254 161 0 330-78 330-223 0-98-70-169-211-207-131-36-266-59-393-103C99-727 32-841 32-990" id="K"/><path fill="#fc9432" d="M470-144c172 0 264-158 264-340v-486h165V0H734v-96C656-18 568 21 470 21 202 21 46-186 46-463v-507h165v507c-4 167 99 319 259 319" id="L"/><path fill="#fc9432" d="M30-484c0-265 224-507 485-507 196 0 345 102 446 305H770c-63-93-148-140-255-140-177 0-319 167-319 342 0 176 146 340 319 340 93 0 176-43 249-128h193C846-77 699 21 515 21 254 21 30-224 30-484" id="M"/><path fill="#fc9432" d="M68-580C-45-823 215-987 454-987c229 0 422 106 446 301l-161 34c-17-73-62-125-139-149-121-38-274-36-352 29-25 21-38 44-38 71 0 66 59 112 178 131 86 13 176 12 261 32 115 27 244 96 244 266 0 81-40 141-102 191C645 38 359 49 192-49 101-102 48-180 33-282l163-35c5 118 149 172 287 172 93 0 238-46 238-127 0-45-37-74-103-103-48-21-337-53-386-71-61-22-144-92-164-134" id="N"/><g id="c"><use transform="matrix(0.008680555555555556,0,0,0.008680555555555556,0,0)" xlink:href="#K"/><use transform="matrix(0.008680555555555556,0,0,0.008680555555555556,10.026041666666668,0)" xlink:href="#L"/><use transform="matrix(0.008680555555555556,0,0,0.008680555555555556,19.314236111111114,0)" xlink:href="#M"/><use transform="matrix(0.008680555555555556,0,0,0.008680555555555556,28.411458333333336,0)" xlink:href="#M"/><use transform="matrix(0.008680555555555556,0,0,0.008680555555555556,37.50868055555556,0)" xlink:href="#I"/><use transform="matrix(0.008680555555555556,0,0,0.008680555555555556,47.534722222222236,0)" xlink:href="#N"/><use transform="matrix(0.008680555555555556,0,0,0.008680555555555556,56.501736111111114,0)" xlink:href="#N"/></g><path fill="#fc9432" d="M371 0L31-970h174l239 678 141-402c-21-61-54-153-98-276h176l241 683 237-683h175C1197-634 1100-340 976 0H829L673-444c-35 99-88 247-157 444H371" id="O"/><path fill="#fc9432" d="M565-1357L165 0H-13l404-1357h174" id="P"/><g id="d"><use transform="matrix(0.008680555555555556,0,0,0.008680555555555556,0,0)" xlink:href="#O"/><use transform="matrix(0.008680555555555556,0,0,0.008680555555555556,12.751736111111112,0)" xlink:href="#P"/></g><path fill="#fc9432" d="M218-1357v689h516v-689h165V0H734v-503H218V0H53v-1357h165" id="Q"/><path fill="#fc9432" d="M838-484c0-173-151-342-322-342-177 0-319 167-319 342 0 176 146 340 319 340 171 0 322-167 322-340zm-807 0c0-265 224-507 485-507 260 0 487 246 487 507 0 260-229 505-487 505C255 21 31-224 31-484" id="R"/><path fill="#fc9432" d="M223-484c0 174 142 340 313 340 169 0 319-168 319-340 0-174-147-342-319-342-173 0-313 166-313 342zm798 0c0 261-225 505-485 505-129 0-235-50-318-149v516H53V-970h165v128c83-99 189-149 318-149 260 0 485 246 485 507" id="S"/><g id="e"><use transform="matrix(0.008680555555555556,0,0,0.008680555555555556,0,0)" xlink:href="#Q"/><use transform="matrix(0.008680555555555556,0,0,0.008680555555555556,9.288194444444445,0)" xlink:href="#R"/><use transform="matrix(0.008680555555555556,0,0,0.008680555555555556,19.314236111111114,0)" xlink:href="#S"/><use transform="matrix(0.008680555555555556,0,0,0.008680555555555556,29.23611111111111,0)" xlink:href="#I"/></g><path d="M695-649l-152-510-156 510h308zM888 0L732-517H348L192 0H57l406-1355h160L1029 0H888" id="T"/><path d="M545-849c-196 0-341 171-341 371V0H74v-957h130v174c77-131 190-196 341-196 285 0 449 200 449 493V0H862v-478c2-219-106-371-317-371" id="U"/><path d="M253 269c88 1 142-24 163-75L519-65 33-957h148l400 735 292-735h140L555 194c-58 142-154 210-302 205V269" id="V"/><g id="f"><use transform="matrix(0.0126953125,0,0,0.0126953125,0,0)" xlink:href="#T"/><use transform="matrix(0.0126953125,0,0,0.0126953125,14.599609375,0)" xlink:href="#U"/><use transform="matrix(0.0126953125,0,0,0.0126953125,28.7802734375,0)" xlink:href="#V"/></g><path d="M51-478c0-256 221-509 478-501 201 6 353 126 426 274H803c-71-96-163-144-274-144-189 0-348 180-348 372 0 191 160 369 348 369 100 0 189-44 266-132h155C852-65 712 22 529 22 275 22 51-223 51-478" id="W"/><path d="M406 0C279 4 176-105 176-232v-595H26v-130c75 0 120-17 137-51 9-17 13-69 13-155h130v206h241v130H306v595c0 70 49 105 146 105 18 0 78-3 95-3V0H406" id="X"/><path d="M240-1205c-40 0-79-36-79-76s39-76 79-76c41 0 78 35 78 76s-37 76-78 76zM47-957h257V0H174v-827H47v-130" id="Y"/><path d="M881-477c0-189-160-372-351-372-189 0-348 181-348 372s160 369 348 369 351-180 351-369zm-829-1c0-256 220-501 478-501 257 0 481 246 481 502S785 22 530 22C276 22 52-223 52-478" id="Z"/><g id="g"><use transform="matrix(0.0126953125,0,0,0.0126953125,0,0)" xlink:href="#T"/><use transform="matrix(0.0126953125,0,0,0.0126953125,14.599609375,0)" xlink:href="#W"/><use transform="matrix(0.0126953125,0,0,0.0126953125,28.361328125,0)" xlink:href="#X"/><use transform="matrix(0.0126953125,0,0,0.0126953125,36.130859375,0)" xlink:href="#Y"/><use transform="matrix(0.0126953125,0,0,0.0126953125,41.208984375,0)" xlink:href="#Z"/><use transform="matrix(0.0126953125,0,0,0.0126953125,55.4912109375,0)" xlink:href="#U"/></g><path fill="#00c2a8" d="M242-567c0 228 105 412 323 412 121 0 200-56 237-168 65-27 164-31 164 55 0 17-9 46-27 85C873-38 748 34 563 34 230 34 46-235 46-579c0-191 46-368 140-532 110-192 254-288 430-288 141 0 249 78 304 240 22 65-30 128-94 126-35 0-69-28-102-85s-70-85-111-85c-115 0-209 81-282 242-59 131-89 262-89 394" id="aa"/><path fill="#00c2a8" d="M529-872c255 0 326 211 326 503 0 146-10 253-32 320-18 56-52 83-99 83-53 0-95-41-94-94 4-187 101-621-111-619-95 0-163 74-220 216-24 59-14 117-17 192-3 89-6 176-14 261-41 29-77 44-108 44-45 0-71-81-71-130 2-345 13-664 1-1005-5-133-25-201-25-206-1-52 39-92 90-92 54 0 94 31 103 97 19 137 4 374 7 532 83-68 171-102 264-102" id="ab"/><path fill="#00c2a8" d="M836-686c0 187-30 463 2 630-71 75-129 122-171 10-82 53-167 80-256 80C187 34 46-160 46-393c0-281 308-555 614-431 19-27 45-40 76-40 67 0 100 59 100 178zM249-382c0 105 58 213 157 213 80 0 157-36 232-109 3-73 4-181 4-326 1 1-110-58-139-48-132-6-254 139-254 270" id="ac"/><path fill="#00c2a8" d="M468-848c193 0 298 180 298 385 0 53-38 94-92 94-48 0-81-25-95-75-20-75-16-213-105-213-95 0-223 127-223 222v425c-45 29-84 44-116 44-42 0-63-31-63-92 0-166-4-210-4-604 0-125 33-188 99-188 53 0 83 27 91 82 68-53 138-80 210-80" id="ad"/><path fill="#00c2a8" d="M693-317c70-2 127 82 85 150C718-70 552 31 404 34 201 38 40-151 44-358c4-212 146-388 302-458 115-51 232-54 316 28 45 43 73 95 84 157-37 55-72 83-106 83-41 12-94-120-135-109-108-10-258 167-258 275 0 142 52 213 157 213 43 0 97-25 163-74s108-74 126-74" id="ae"/><path fill="#00c2a8" d="M584-872c50 0 94 39 94 90 0 53-31 85-94 98-29 6-81 10-156 10v662c-58 31-101 46-128 46-39 0-59-22-59-65 2-210 3-252 3-645-82 0-147-4-195-12-65-109-48-182 122-181 13-1 61 4 73 4v-364c-1-48 42-89 91-89 47 0 92 41 92 89v359c43-1 96-2 157-2" id="af"/><path fill="#00c2a8" d="M741-273c50-2 102 44 100 94 0 19-8 40-25 63C764-40 600 34 473 34 251 34 46-175 46-396c0-217 200-459 413-459 160 0 336 211 336 369 0 44-28 73-82 92-62 22-312 32-464 24 15 104 106 205 224 203 39 0 88-18 149-53s100-53 119-53zM572-570c-76-133-187-104-270 20 39-1 129-7 270-20" id="ag"/><path fill="#00c2a8" d="M531-614c-33 0-117-43-150-43-49 0-84 9-103 26 45 67 311 167 362 220 54 56 87 121 87 208C727-59 571 34 418 34 267 34 142-29 43-154c7-41 48-130 87-128 2 0 37 22 104 66s127 66 179 66c66 0 107-17 123-50-5-45-48-90-128-136-72-41-147-78-217-121-80-49-116-111-116-174 0-130 162-224 297-224 79 0 256 66 256 140 0 50-47 101-97 101" id="ah"/><g id="h"><use transform="matrix(0.01953125,0,0,0.01953125,0,0)" xlink:href="#aa"/><use transform="matrix(0.01953125,0,0,0.01953125,19.8046875,0)" xlink:href="#ab"/><use transform="matrix(0.01953125,0,0,0.01953125,36.9140625,0)" xlink:href="#ac"/><use transform="matrix(0.01953125,0,0,0.01953125,54.58984375,0)" xlink:href="#ad"/><use transform="matrix(0.01953125,0,0,0.01953125,69.78515625,0)" xlink:href="#ac"/><use transform="matrix(0.01953125,0,0,0.01953125,87.4609375,0)" xlink:href="#ae"/><use transform="matrix(0.01953125,0,0,0.01953125,103.76953125,0)" xlink:href="#af"/><use transform="matrix(0.01953125,0,0,0.01953125,117.2265625,0)" xlink:href="#ag"/><use transform="matrix(0.01953125,0,0,0.01953125,134.4921875,0)" xlink:href="#ad"/><use transform="matrix(0.01953125,0,0,0.01953125,149.6875,0)" xlink:href="#ah"/></g><path fill="#635dff" d="M28-165h167v-1028H28v-164h505v164H362v1028h171V0H28v-165" id="ai"/><path fill="#635dff" d="M439-1189c-122 0-183 48-183 143v76h183v165H256V0H89v-805H13v-165h76c-8-144 16-237 103-308 64-53 146-79 247-79v168" id="aj"/><g id="i"><use transform="matrix(0.008680555555555556,0,0,0.008680555555555556,0,0)" xlink:href="#ai"/><use transform="matrix(0.008680555555555556,0,0,0.008680555555555556,5.572916666666667,0)" xlink:href="#aj"/></g><path fill="#635dff" d="M530-826c-179 0-312 160-312 342V0H53v-970h165v127c78-99 182-148 312-148 289 0 456 203 456 499V0H819v-484c2-203-95-342-289-342" id="ak"/><path fill="#635dff" d="M816-616c-46-109-154-210-294-210-133 0-258 109-301 210h595zM31-484c0-260 230-507 491-507 282 0 495 254 487 541H196c10 148 163 311 326 306 147-5 277-104 326-215l166 28C947-150 753 16 522 21 260 27 31-223 31-484" id="al"/><path fill="#635dff" d="M860-484c0-175-137-342-310-342-172 0-345 169-345 342s167 340 340 340c172 0 315-166 315-340zm-820 0c0-260 250-507 510-507 131 0 236 50 315 149v-515h167V0H865v-128C782-29 675 21 545 21 285 21 40-224 40-484" id="am"/><g id="j"><use transform="matrix(0.008680555555555556,0,0,0.008680555555555556,0,0)" xlink:href="#ak"/><use transform="matrix(0.008680555555555556,0,0,0.008680555555555556,9.956597222222223,0)" xlink:href="#al"/><use transform="matrix(0.008680555555555556,0,0,0.008680555555555556,19.982638888888893,0)" xlink:href="#al"/><use transform="matrix(0.008680555555555556,0,0,0.008680555555555556,30.00868055555556,0)" xlink:href="#am"/><use transform="matrix(0.008680555555555556,0,0,0.008680555555555556,40.46006944444444,0)" xlink:href="#al"/><use transform="matrix(0.008680555555555556,0,0,0.008680555555555556,50.486111111111114,0)" xlink:href="#am"/></g><path fill="#635dff" d="M861-1357v165H218v374h516v169H218V0H53v-1357h808" id="an"/><path fill="#635dff" d="M484-144c91 0 275-43 275-120v-184c-54 18-283 13-339 27-84 21-172 73-172 157 0 80 79 120 236 120zm27-847c168 0 413 106 413 260v563c0 15 16 23 48 26-4 64-6 118-6 163-81-4-138-29-172-76-80 51-181 76-304 76C213 21 75-75 75-266c0-155 132-276 270-302-15-8 340-16 395-49 13-7 20-20 21-39-1 24-2 8-2-49 0-71-154-124-234-124-152 0-248 58-288 173L79-690c32-191 203-301 432-301" id="ao"/><path fill="#635dff" d="M233-1172c-50 0-96-44-96-94 0-49 46-93 96-93s96 43 96 93c0 52-44 94-96 94zM26-970h289V0H150v-805H26v-165" id="ap"/><path fill="#635dff" d="M125-1357h167V0H125v-1357" id="aq"/><path fill="#635dff" d="M470-144c172 0 264-158 264-340v-486h165V0H734v-96C656-18 568 21 470 21 202 21 46-186 46-463v-507h165v507c-4 167 99 319 259 319" id="ar"/><path fill="#635dff" d="M535-805c-177 0-317 145-317 321V0H51v-970h167v134c85-89 189-134 310-134h218v218c-83-35-153-53-211-53" id="as"/><g id="k"><use transform="matrix(0.008680555555555556,0,0,0.008680555555555556,0,0)" xlink:href="#an"/><use transform="matrix(0.008680555555555556,0,0,0.008680555555555556,8.272569444444445,0)" xlink:href="#ao"/><use transform="matrix(0.008680555555555556,0,0,0.008680555555555556,17.786458333333336,0)" xlink:href="#ap"/><use transform="matrix(0.008680555555555556,0,0,0.008680555555555556,21.51909722222222,0)" xlink:href="#aq"/><use transform="matrix(0.008680555555555556,0,0,0.008680555555555556,25.269097222222225,0)" xlink:href="#ar"/><use transform="matrix(0.008680555555555556,0,0,0.008680555555555556,34.55729166666667,0)" xlink:href="#as"/><use transform="matrix(0.008680555555555556,0,0,0.008680555555555556,41.56250000000001,0)" xlink:href="#al"/></g><path fill="#635dff" d="M838-484c0-173-151-342-322-342-177 0-319 167-319 342 0 176 146 340 319 340 171 0 322-167 322-340zm-807 0c0-265 224-507 485-507 260 0 487 246 487 507 0 260-229 505-487 505C255 21 31-224 31-484" id="at"/><g id="l"><use transform="matrix(0.008680555555555556,0,0,0.008680555555555556,0,0)" xlink:href="#at"/><use transform="matrix(0.008680555555555556,0,0,0.008680555555555556,10.026041666666668,0)" xlink:href="#as"/></g><g id="m"><use transform="matrix(0.008680555555555556,0,0,0.008680555555555556,0,0)" xlink:href="#an"/><use transform="matrix(0.008680555555555556,0,0,0.008680555555555556,8.272569444444445,0)" xlink:href="#al"/><use transform="matrix(0.008680555555555556,0,0,0.008680555555555556,18.298611111111114,0)" xlink:href="#ao"/><use transform="matrix(0.008680555555555556,0,0,0.008680555555555556,27.812500000000004,0)" xlink:href="#as"/></g><path fill="#635dff" d="M884-797c168-4 137 217 137 391 0 141-3 370-24 421-22 54-53 82-103 82-57 0-96-45-90-104-59 27-125 41-196 41C254 34 44-316 44-691c0-173 41-329 123-466 97-161 226-242 388-242 148 0 278 77 389 232-29 75-63 112-103 112-5 0-41-25-108-75s-123-75-170-75c-202 0-319 288-319 510 0 265 122 526 367 526 98 0 167-45 206-136v-299c-123 3-250 30-356-12-34-64-53-145 25-164 92 0 298-15 398-17" id="au"/><path fill="#635dff" d="M836-686c0 187-30 463 2 630-71 75-129 122-171 10-82 53-167 80-256 80C187 34 46-160 46-393c0-281 308-555 614-431 19-27 45-40 76-40 67 0 100 59 100 178zM249-382c0 105 58 213 157 213 80 0 157-36 232-109 3-73 4-181 4-326 1 1-110-58-139-48-132-6-254 139-254 270" id="av"/><path fill="#635dff" d="M476-126c0-66 16-285 16-352 0-127-35-191-105-191-52 0-95 33-128 99v459c-1 97-34 145-99 145C99 34 68-4 68-80c-3-280 4-405 5-720 48-30 87-45 118-45 23 0 40 10 51 29 122-74 282-47 360 57 61-63 131-94 210-94 198 0 297 146 297 437 0 66-17 290-15 356 2 51-43 94-94 94-66 0-99-52-99-155 0-65 14-288 14-353 0-127-35-190-104-190-57 0-102 36-133 109 23 130-10 351-9 490 1 50-44 94-94 94-66 0-99-52-99-155" id="aw"/><path fill="#635dff" d="M741-273c50-2 102 44 100 94 0 19-8 40-25 63C764-40 600 34 473 34 251 34 46-175 46-396c0-217 200-459 413-459 160 0 336 211 336 369 0 44-28 73-82 92-62 22-312 32-464 24 15 104 106 205 224 203 39 0 88-18 149-53s100-53 119-53zM572-570c-76-133-187-104-270 20 39-1 129-7 270-20" id="ax"/><g id="n"><use transform="matrix(0.01953125,0,0,0.01953125,0,0)" xlink:href="#au"/><use transform="matrix(0.01953125,0,0,0.01953125,21.03515625,0)" xlink:href="#av"/><use transform="matrix(0.01953125,0,0,0.01953125,38.7109375,0)" xlink:href="#aw"/><use transform="matrix(0.01953125,0,0,0.01953125,61.640625,0)" xlink:href="#ax"/></g><path fill="#635dff" d="M174-1391c39 0 103 43 91 85 76 174 253 635 399 995 104-301 211-597 312-901 31-90 52-141 65-153 78-73 172-25 172 114V-12c-105 78-190 68-186-119 4-214 1-435 2-654-44 106-177 513-246 703-26 71-73 104-126 104-48 0-92-54-133-162-42-113-129-337-261-674 7 416 9 459-9 804-41 29-76 44-107 44-75 0-64-100-62-174 5-198-15-855-15-1053 0-132 35-198 104-198" id="ay"/><path fill="#635dff" d="M531-614c-33 0-117-43-150-43-49 0-84 9-103 26 45 67 311 167 362 220 54 56 87 121 87 208C727-59 571 34 418 34 267 34 142-29 43-154c7-41 48-130 87-128 2 0 37 22 104 66s127 66 179 66c66 0 107-17 123-50-5-45-48-90-128-136-72-41-147-78-217-121-80-49-116-111-116-174 0-130 162-224 297-224 79 0 256 66 256 140 0 50-47 101-97 101" id="az"/><path fill="#635dff" d="M584-872c50 0 94 39 94 90 0 53-31 85-94 98-29 6-81 10-156 10v662c-58 31-101 46-128 46-39 0-59-22-59-65 2-210 3-252 3-645-82 0-147-4-195-12-65-109-48-182 122-181 13-1 61 4 73 4v-364c-1-48 42-89 91-89 47 0 92 41 92 89v359c43-1 96-2 157-2" id="aA"/><path fill="#635dff" d="M468-848c193 0 298 180 298 385 0 53-38 94-92 94-48 0-81-25-95-75-20-75-16-213-105-213-95 0-223 127-223 222v425c-45 29-84 44-116 44-42 0-63-31-63-92 0-166-4-210-4-604 0-125 33-188 99-188 53 0 83 27 91 82 68-53 138-80 210-80" id="aB"/><g id="o"><use transform="matrix(0.01953125,0,0,0.01953125,0,0)" xlink:href="#ay"/><use transform="matrix(0.01953125,0,0,0.01953125,25.09765625,0)" xlink:href="#av"/><use transform="matrix(0.01953125,0,0,0.01953125,42.7734375,0)" xlink:href="#az"/><use transform="matrix(0.01953125,0,0,0.01953125,57.8125,0)" xlink:href="#aA"/><use transform="matrix(0.01953125,0,0,0.01953125,71.26953125,0)" xlink:href="#ax"/><use transform="matrix(0.01953125,0,0,0.01953125,88.53515625,0)" xlink:href="#aB"/></g><path fill="#fc9432" d="M53-1311c-12-48 236-88 295-88 197 0 365 41 505 122 170 98 255 239 255 422 0 338-392 467-770 420-1 250-2 343-2 343 0 84-31 126-92 126-48 0-89-38-89-87 0-112 4-348 5-423-47-19-71-52-71-97 0-51 24-83 71-94 1-236 2-415 2-536l-51 5c-39-43-58-81-58-113zm855 463c0-253-274-365-563-359-5 191-7 382-7 572 37 5 81 7 130 7 293 0 440-73 440-220" id="aC"/><path fill="#fc9432" d="M253-1232c0 339 47 894 1 1220C165 56 70 64 75-94c7-254-17-925-15-1193 0-75 31-112 92-112 67 0 101 56 101 167" id="aD"/><path fill="#fc9432" d="M836-686c0 187-30 463 2 630-71 75-129 122-171 10-82 53-167 80-256 80C187 34 46-160 46-393c0-281 308-555 614-431 19-27 45-40 76-40 67 0 100 59 100 178zM249-382c0 105 58 213 157 213 80 0 157-36 232-109 3-73 4-181 4-326 1 1-110-58-139-48-132-6-254 139-254 270" id="aE"/><path fill="#fc9432" d="M683-811c45-89 204-23 170 70C723-388 475 102 295 379c-62 7-148-23-150-70 0-14 63-137 190-370-52-145-206-460-286-707 72-102 138-124 192 0 58 134 146 340 208 481 110-218 131-319 234-524" id="aF"/><path fill="#fc9432" d="M741-273c50-2 102 44 100 94 0 19-8 40-25 63C764-40 600 34 473 34 251 34 46-175 46-396c0-217 200-459 413-459 160 0 336 211 336 369 0 44-28 73-82 92-62 22-312 32-464 24 15 104 106 205 224 203 39 0 88-18 149-53s100-53 119-53zM572-570c-76-133-187-104-270 20 39-1 129-7 270-20" id="aG"/><path fill="#fc9432" d="M468-848c193 0 298 180 298 385 0 53-38 94-92 94-48 0-81-25-95-75-20-75-16-213-105-213-95 0-223 127-223 222v425c-45 29-84 44-116 44-42 0-63-31-63-92 0-166-4-210-4-604 0-125 33-188 99-188 53 0 83 27 91 82 68-53 138-80 210-80" id="aH"/><path fill="#fc9432" d="M531-614c-33 0-117-43-150-43-49 0-84 9-103 26 45 67 311 167 362 220 54 56 87 121 87 208C727-59 571 34 418 34 267 34 142-29 43-154c7-41 48-130 87-128 2 0 37 22 104 66s127 66 179 66c66 0 107-17 123-50-5-45-48-90-128-136-72-41-147-78-217-121-80-49-116-111-116-174 0-130 162-224 297-224 79 0 256 66 256 140 0 50-47 101-97 101" id="aI"/><g id="p"><use transform="matrix(0.01953125,0,0,0.01953125,0,0)" xlink:href="#aC"/><use transform="matrix(0.01953125,0,0,0.01953125,21.93359375,0)" xlink:href="#aD"/><use transform="matrix(0.01953125,0,0,0.01953125,28.3984375,0)" xlink:href="#aE"/><use transform="matrix(0.01953125,0,0,0.01953125,46.07421875,0)" xlink:href="#aF"/><use transform="matrix(0.01953125,0,0,0.01953125,62.34375,0)" xlink:href="#aG"/><use transform="matrix(0.01953125,0,0,0.01953125,79.609375,0)" xlink:href="#aH"/><use transform="matrix(0.01953125,0,0,0.01953125,94.8046875,0)" xlink:href="#aI"/></g><path d="M41-589h282v-299h131v299h278v130H454v292H323v-292H41v-130" id="aJ"/><use transform="matrix(0.0126953125,0,0,0.0126953125,0,0)" xlink:href="#aJ" id="q"/><path d="M966-625c20-2 56 36 56 56V0H893v-141C803-32 685 22 540 22 268 22 57-229 57-506v-345c-8-277 211-528 483-528s491 251 483 528H893c5-220-139-398-353-398-205 0-353 174-353 382v377c-5 208 148 382 353 382 208 0 359-175 354-388H606c-1-25-2-91 0-129h360" id="aK"/><path d="M204-1131V0H72v-1355h167l417 834 417-834h172V0h-133v-1131L732-373H584" id="aL"/><g id="r"><use transform="matrix(0.013020833333333334,0,0,0.013020833333333334,0,0)" xlink:href="#aK"/><use transform="matrix(0.013020833333333334,0,0,0.013020833333333334,14.830729166666668,0)" xlink:href="#aL"/></g><path d="M178-957l334 813 331-813h142L595 0H424L33-957h145" id="aM"/><path d="M52-478c0-256 228-501 485-501 264 0 489 248 480 516H180c0 180 174 355 357 355 148 0 301-110 347-219l130 23C955-140 749 17 537 22 280 28 52-222 52-478zm815-115c-38-129-172-257-330-256-158 0-295 130-340 256h670" id="aN"/><g id="s"><use transform="matrix(0.013020833333333334,0,0,0.013020833333333334,0,0)" xlink:href="#aL"/><use transform="matrix(0.013020833333333334,0,0,0.013020833333333334,18.1640625,0)" xlink:href="#Z"/><use transform="matrix(0.013020833333333334,0,0,0.013020833333333334,32.8125,0)" xlink:href="#aM"/><use transform="matrix(0.013020833333333334,0,0,0.013020833333333334,45.846354166666664,0)" xlink:href="#aN"/></g><path d="M892-988c1-180-155-261-350-261-239 0-359 83-359 250 0 109 72 186 218 225 134 36 273 57 404 101 148 49 217 165 217 318 0 218-259 377-488 377C285 22 54-135 53-369h130c6 176 157 261 349 261 178 0 360-88 360-250 0-109-72-188-217-228-134-37-272-59-404-103C123-738 53-851 53-998c0-227 241-381 478-381 258 0 497 146 491 391H892" id="aO"/><path d="M209-478c0 191 154 370 342 370 187 0 348-181 348-370S737-849 551-849c-188 0-342 180-342 371zm820 0c0 258-224 500-478 500-147 0-262-65-347-196v573H74V-957h130v174c85-131 200-196 347-196 256 0 478 244 478 501" id="aP"/><path d="M-2-478c0-256 249-501 505-501 147 0 261 65 343 196v-572h132V0H846v-174C761-43 645 22 498 22 243 22-2-223-2-478zm843 0c0-191-151-371-338-371S128-665 128-478s183 370 370 370c188 0 343-180 343-370" id="aQ"/><g id="t"><use transform="matrix(0.013020833333333334,0,0,0.013020833333333334,0,0)" xlink:href="#aO"/><use transform="matrix(0.013020833333333334,0,0,0.013020833333333334,14.6484375,0)" xlink:href="#aP"/><use transform="matrix(0.013020833333333334,0,0,0.013020833333333334,29.140625,0)" xlink:href="#aN"/><use transform="matrix(0.013020833333333334,0,0,0.013020833333333334,43.7890625,0)" xlink:href="#U"/><use transform="matrix(0.013020833333333334,0,0,0.013020833333333334,58.333333333333336,0)" xlink:href="#aQ"/></g><path d="M865-1355v130H204v424h531v134H204V0H74v-1355h791" id="aR"/><path d="M497-108c108 0 303-51 303-143v-220c-2 23-338 19-365 38-104 20-200 82-200 182 0 95 87 143 262 143zm28-871c161 0 405 100 405 248v579c0 27 16 41 48 44-1 21-3 64-5 129-72-4-122-33-151-87-82 59-188 88-318 88C233 22 97-70 97-253c0-145 124-253 248-288 70-20 368-9 427-58 17-9 27-25 29-46-1 7-1-13-1-60 0-84-168-147-260-147-166 0-269 58-309 174l-126-27c31-178 203-274 420-274" id="aS"/><path d="M550-827c-191 0-346 159-346 349V0H72v-957h132v174c85-116 198-174 339-174h204v174c-69-29-134-44-197-44" id="aT"/><g id="u"><use transform="matrix(0.013020833333333334,0,0,0.013020833333333334,0,0)" xlink:href="#aR"/><use transform="matrix(0.013020833333333334,0,0,0.013020833333333334,12.018229166666668,0)" xlink:href="#aN"/><use transform="matrix(0.013020833333333334,0,0,0.013020833333333334,26.666666666666668,0)" xlink:href="#aS"/><use transform="matrix(0.013020833333333334,0,0,0.013020833333333334,40.546875,0)" xlink:href="#aT"/></g><g id="v"><use transform="matrix(0.0126953125,0,0,0.0126953125,0,0)" xlink:href="#aL"/><use transform="matrix(0.0126953125,0,0,0.0126953125,17.7099609375,0)" xlink:href="#Z"/><use transform="matrix(0.0126953125,0,0,0.0126953125,31.9921875,0)" xlink:href="#aM"/><use transform="matrix(0.0126953125,0,0,0.0126953125,44.7001953125,0)" xlink:href="#aN"/></g><path d="M483-108c191 0 291-169 291-370v-479h130V0H774v-137C701-31 604 22 483 22 219 22 67-183 67-456v-501h130v501c-4 182 112 348 286 348" id="aU"/><g id="w"><use transform="matrix(0.0126953125,0,0,0.0126953125,0,0)" xlink:href="#aU"/><use transform="matrix(0.0126953125,0,0,0.0126953125,13.203125,0)" xlink:href="#aP"/></g><g id="x"><use transform="matrix(0.0126953125,0,0,0.0126953125,0,0)" xlink:href="#X"/><use transform="matrix(0.0126953125,0,0,0.0126953125,7.76953125,0)" xlink:href="#Z"/></g><path d="M540 22C268 22 57-229 57-506v-345c-8-277 211-528 483-528 249 0 439 198 473 423H885c-28-159-165-293-345-293-205 0-353 174-353 382v377c-5 208 148 382 353 382 180 0 318-134 345-293h128C979-176 789 22 540 22" id="aV"/><path d="M86-1355h132V0H86v-1355" id="aW"/><path d="M898-260C898-89 674 20 489 20 280 20 75-78 57-254l126-27c2 114 176 171 313 171 113 0 265-50 265-150 0-60-40-102-120-127-21-6-104-22-252-42-166-23-242-71-302-158-134-339 365-481 654-327 94 50 148 120 161 213l-126 27c-25-116-134-174-329-174-116 0-251 47-251 149 0 73 54 127 164 147 83 15 168 18 253 29 83 11 158 46 225 101 40 33 60 87 60 162" id="aX"/><g id="y"><use transform="matrix(0.0126953125,0,0,0.0126953125,0,0)" xlink:href="#aV"/><use transform="matrix(0.0126953125,0,0,0.0126953125,14.015625,0)" xlink:href="#aW"/><use transform="matrix(0.0126953125,0,0,0.0126953125,18.5224609375,0)" xlink:href="#Z"/><use transform="matrix(0.0126953125,0,0,0.0126953125,32.8046875,0)" xlink:href="#aX"/><use transform="matrix(0.0126953125,0,0,0.0126953125,45.5380859375,0)" xlink:href="#aN"/></g><path d="M540-1249c-205 0-353 174-353 382v377c-5 208 148 382 353 382s353-174 353-382v-377c5-208-148-382-353-382zm0-130c272 0 483 251 483 528v345c8 277-211 528-483 528S57-229 57-506v-345c-8-277 211-528 483-528" id="aY"/><g id="z"><use transform="matrix(0.0126953125,0,0,0.0126953125,0,0)" xlink:href="#aY"/><use transform="matrix(0.0126953125,0,0,0.0126953125,14.37109375,0)" xlink:href="#aT"/></g><g id="A"><use transform="matrix(0.0126953125,0,0,0.0126953125,0,0)" xlink:href="#aO"/><use transform="matrix(0.0126953125,0,0,0.0126953125,14.2822265625,0)" xlink:href="#aP"/><use transform="matrix(0.0126953125,0,0,0.0126953125,28.412109375,0)" xlink:href="#aT"/><use transform="matrix(0.0126953125,0,0,0.0126953125,39.2919921875,0)" xlink:href="#Y"/><use transform="matrix(0.0126953125,0,0,0.0126953125,44.3701171875,0)" xlink:href="#U"/><use transform="matrix(0.0126953125,0,0,0.0126953125,58.55078125,0)" xlink:href="#X"/></g><path d="M170-1355L508-232l343-1123h134L580 0H439L33-1355h137" id="aZ"/><g id="B"><use transform="matrix(0.0126953125,0,0,0.0126953125,0,0)" xlink:href="#aZ"/><use transform="matrix(0.0126953125,0,0,0.0126953125,13.7236328125,0)" xlink:href="#aN"/><use transform="matrix(0.0126953125,0,0,0.0126953125,28.005859375,0)" xlink:href="#aT"/><use transform="matrix(0.0126953125,0,0,0.0126953125,38.8857421875,0)" xlink:href="#V"/></g><g id="C"><use transform="matrix(0.0126953125,0,0,0.0126953125,0,0)" xlink:href="#aR"/><use transform="matrix(0.0126953125,0,0,0.0126953125,11.7177734375,0)" xlink:href="#aS"/><use transform="matrix(0.0126953125,0,0,0.0126953125,25.2509765625,0)" xlink:href="#aT"/></g><path d="M494-979c203 0 420 127 420 319 0 109-70 192-210 251-53 22-170 52-351 90-101 22-152 85-152 189h701V0H68v-130c0-167 83-269 250-305 133-28 223-50 271-67 129-45 194-97 194-158 0-133-117-186-288-189-126-2-301 76-294 193H69c-7-196 219-323 425-323" id="ba"/><path d="M53-760v-98c81 0 124-33 128-99h90v827h70V0H53v-130h88v-630H53" id="bb"/><g id="D"><use transform="matrix(0.01953125,0,0,0.01953125,0,0)" xlink:href="#ba"/><use transform="matrix(0.01953125,0,0,0.01953125,20.3125,0)" xlink:href="#aQ"/><use transform="matrix(0.01953125,0,0,0.01953125,42.05078125,0)" xlink:href="#bb"/><use transform="matrix(0.01953125,0,0,0.01953125,50.17578125,0)" xlink:href="#ba"/></g><path d="M466-979c200 0 408 176 408 373v255C884-154 666 22 466 22 264 22 59-152 59-351v-255c-8-199 205-373 407-373zm-1 871c134 0 279-110 279-241v-255c6-134-142-245-279-245-135 0-276 104-276 235v274c-6 127 146 232 276 232" id="bc"/><g id="E"><use transform="matrix(0.01953125,0,0,0.01953125,0,0)" xlink:href="#bb"/><use transform="matrix(0.01953125,0,0,0.01953125,8.125,0)" xlink:href="#aQ"/><use transform="matrix(0.01953125,0,0,0.01953125,29.86328125,0)" xlink:href="#ba"/><use transform="matrix(0.01953125,0,0,0.01953125,50.17578125,0)" xlink:href="#bc"/></g></defs></g></svg>