<svg xmlns="http://www.w3.org/2000/svg" xmlns:xlink="http://www.w3.org/1999/xlink" xmlns:lucid="lucid" width="734" height="559"><g transform="translate(-1251 -808)" lucid:page-tab-id="0_0"><path d="M1276.24 1299.15a3.5 3.5 0 0 1-3.5-3.5 3.5 3.5 0 0 1 3.5-3.5 3.5 3.5 0 0 1 3.5 3.5 3.5 3.5 0 0 1-3.5 3.5m5.9 14.08a3.5 3.5 0 0 1-3.5-3.5 3.5 3.5 0 0 1 3.5-3.5 3.5 3.5 0 0 1 3.5 3.5 3.5 3.5 0 0 1-3.5 3.5m14.1 5.92a3.5 3.5 0 0 1-3.5-3.5 3.5 3.5 0 0 1 3.5-3.5 3.5 3.5 0 0 1 3.5 3.5 3.5 3.5 0 0 1-3.5 3.5m13.34 0a3.5 3.5 0 0 1-3.5-3.5 3.5 3.5 0 0 1 3.5-3.5 3.5 3.5 0 0 1 3.5 3.5 3.5 3.5 0 0 1-3.5 3.5m13.33 0a3.5 3.5 0 0 1-3.5-3.5 3.5 3.5 0 0 1 3.5-3.5 3.5 3.5 0 0 1 3.5 3.5 3.5 3.5 0 0 1-3.5 3.5m13.34 0a3.5 3.5 0 0 1-3.5-3.5 3.5 3.5 0 0 1 3.5-3.5 3.5 3.5 0 0 1 3.5 3.5 3.5 3.5 0 0 1-3.5 3.5m13.34 0a3.5 3.5 0 0 1-3.5-3.5 3.5 3.5 0 0 1 3.5-3.5 3.5 3.5 0 0 1 3.5 3.5 3.5 3.5 0 0 1-3.5 3.5m13.33 0a3.5 3.5 0 0 1-3.5-3.5 3.5 3.5 0 0 1 3.5-3.5 3.5 3.5 0 0 1 3.5 3.5 3.5 3.5 0 0 1-3.5 3.5m13.34 0a3.5 3.5 0 0 1-3.5-3.5 3.5 3.5 0 0 1 3.5-3.5 3.5 3.5 0 0 1 3.5 3.5 3.5 3.5 0 0 1-3.5 3.5m13.34 0a3.5 3.5 0 0 1-3.5-3.5 3.5 3.5 0 0 1 3.5-3.5 3.5 3.5 0 0 1 3.5 3.5 3.5 3.5 0 0 1-3.5 3.5m13.33 0a3.5 3.5 0 0 1-3.5-3.5 3.5 3.5 0 0 1 3.5-3.5 3.5 3.5 0 0 1 3.5 3.5 3.5 3.5 0 0 1-3.5 3.5m13.34 0a3.5 3.5 0 0 1-3.5-3.5 3.5 3.5 0 0 1 3.5-3.5 3.5 3.5 0 0 1 3.5 3.5 3.5 3.5 0 0 1-3.5 3.5m14.1 5.9a3.5 3.5 0 0 1-3.5-3.5 3.5 3.5 0 0 1 3.5-3.5 3.5 3.5 0 0 1 3.5 3.5 3.5 3.5 0 0 1-3.5 3.5m5.9 14.1a3.5 3.5 0 0 1-3.5-3.5 3.5 3.5 0 0 1 3.5-3.5 3.5 3.5 0 0 1 3.5 3.5 3.5 3.5 0 0 1-3.5 3.5m5.9-14.1a3.5 3.5 0 0 1-3.5-3.5 3.5 3.5 0 0 1 3.5-3.5 3.5 3.5 0 0 1 3.5 3.5 3.5 3.5 0 0 1-3.5 3.5m14.1-5.9a3.5 3.5 0 0 1-3.5-3.5 3.5 3.5 0 0 1 3.5-3.5 3.5 3.5 0 0 1 3.5 3.5 3.5 3.5 0 0 1-3.5 3.5m13.34 0a3.5 3.5 0 0 1-3.5-3.5 3.5 3.5 0 0 1 3.5-3.5 3.5 3.5 0 0 1 3.5 3.5 3.5 3.5 0 0 1-3.5 3.5m13.33 0a3.5 3.5 0 0 1-3.5-3.5 3.5 3.5 0 0 1 3.5-3.5 3.5 3.5 0 0 1 3.5 3.5 3.5 3.5 0 0 1-3.5 3.5m13.34 0a3.5 3.5 0 0 1-3.5-3.5 3.5 3.5 0 0 1 3.5-3.5 3.5 3.5 0 0 1 3.5 3.5 3.5 3.5 0 0 1-3.5 3.5m13.34 0a3.5 3.5 0 0 1-3.5-3.5 3.5 3.5 0 0 1 3.5-3.5 3.5 3.5 0 0 1 3.5 3.5 3.5 3.5 0 0 1-3.5 3.5m13.33 0a3.5 3.5 0 0 1-3.5-3.5 3.5 3.5 0 0 1 3.5-3.5 3.5 3.5 0 0 1 3.5 3.5 3.5 3.5 0 0 1-3.5 3.5m13.34 0a3.5 3.5 0 0 1-3.5-3.5 3.5 3.5 0 0 1 3.5-3.5 3.5 3.5 0 0 1 3.5 3.5 3.5 3.5 0 0 1-3.5 3.5m13.34 0a3.5 3.5 0 0 1-3.5-3.5 3.5 3.5 0 0 1 3.5-3.5 3.5 3.5 0 0 1 3.5 3.5 3.5 3.5 0 0 1-3.5 3.5m13.33 0a3.5 3.5 0 0 1-3.5-3.5 3.5 3.5 0 0 1 3.5-3.5 3.5 3.5 0 0 1 3.5 3.5 3.5 3.5 0 0 1-3.5 3.5m13.34 0a3.5 3.5 0 0 1-3.5-3.5 3.5 3.5 0 0 1 3.5-3.5 3.5 3.5 0 0 1 3.5 3.5 3.5 3.5 0 0 1-3.5 3.5m14.1-5.9a3.5 3.5 0 0 1-3.5-3.5 3.5 3.5 0 0 1 3.5-3.5 3.5 3.5 0 0 1 3.5 3.5 3.5 3.5 0 0 1-3.5 3.5m5.9-14.1a3.5 3.5 0 0 1-3.5-3.5 3.5 3.5 0 0 1 3.5-3.5 3.5 3.5 0 0 1 3.5 3.5 3.5 3.5 0 0 1-3.5 3.5m0 0a3.5 3.5 0 0 1-3.5-3.5 3.5 3.5 0 0 1 3.5-3.5 3.5 3.5 0 0 1 3.5 3.5 3.5 3.5 0 0 1-3.5 3.5m0-339.87a3.5 3.5 0 0 1-3.5-3.5 3.5 3.5 0 0 1 3.5-3.5 3.5 3.5 0 0 1 3.5 3.5 3.5 3.5 0 0 1-3.5 3.5m-5.9-14.08a3.5 3.5 0 0 1-3.5-3.5 3.5 3.5 0 0 1 3.5-3.5 3.5 3.5 0 0 1 3.5 3.5 3.5 3.5 0 0 1-3.5 3.5m-14.1-5.92a3.5 3.5 0 0 1-3.5-3.5 3.5 3.5 0 0 1 3.5-3.5 3.5 3.5 0 0 1 3.5 3.5 3.5 3.5 0 0 1-3.5 3.5m-13.33 0a3.5 3.5 0 0 1-3.5-3.5 3.5 3.5 0 0 1 3.5-3.5 3.5 3.5 0 0 1 3.5 3.5 3.5 3.5 0 0 1-3.5 3.5m-13.32 0a3.5 3.5 0 0 1-3.5-3.5 3.5 3.5 0 0 1 3.5-3.5 3.5 3.5 0 0 1 3.5 3.5 3.5 3.5 0 0 1-3.5 3.5m-13.34 0a3.5 3.5 0 0 1-3.5-3.5 3.5 3.5 0 0 1 3.5-3.5 3.5 3.5 0 0 1 3.5 3.5 3.5 3.5 0 0 1-3.5 3.5m-13.33 0a3.5 3.5 0 0 1-3.5-3.5 3.5 3.5 0 0 1 3.5-3.5 3.5 3.5 0 0 1 3.5 3.5 3.5 3.5 0 0 1-3.5 3.5m-13.32 0a3.5 3.5 0 0 1-3.5-3.5 3.5 3.5 0 0 1 3.5-3.5 3.5 3.5 0 0 1 3.5 3.5 3.5 3.5 0 0 1-3.5 3.5m-13.34 0a3.5 3.5 0 0 1-3.5-3.5 3.5 3.5 0 0 1 3.5-3.5 3.5 3.5 0 0 1 3.5 3.5 3.5 3.5 0 0 1-3.5 3.5m-13.33 0a3.5 3.5 0 0 1-3.5-3.5 3.5 3.5 0 0 1 3.5-3.5 3.5 3.5 0 0 1 3.5 3.5 3.5 3.5 0 0 1-3.5 3.5m-13.32 0a3.5 3.5 0 0 1-3.5-3.5 3.5 3.5 0 0 1 3.5-3.5 3.5 3.5 0 0 1 3.5 3.5 3.5 3.5 0 0 1-3.5 3.5m-13.34 0a3.5 3.5 0 0 1-3.5-3.5 3.5 3.5 0 0 1 3.5-3.5 3.5 3.5 0 0 1 3.5 3.5 3.5 3.5 0 0 1-3.5 3.5m-14.08-5.9a3.5 3.5 0 0 1-3.5-3.5 3.5 3.5 0 0 1 3.5-3.5 3.5 3.5 0 0 1 3.5 3.5 3.5 3.5 0 0 1-3.5 3.5m-5.92-14.1a3.5 3.5 0 0 1-3.5-3.5 3.5 3.5 0 0 1 3.5-3.5 3.5 3.5 0 0 1 3.5 3.5 3.5 3.5 0 0 1-3.5 3.5m-5.9 14.1a3.5 3.5 0 0 1-3.5-3.5 3.5 3.5 0 0 1 3.5-3.5 3.5 3.5 0 0 1 3.5 3.5 3.5 3.5 0 0 1-3.5 3.5m-14.1 5.9a3.5 3.5 0 0 1-3.5-3.5 3.5 3.5 0 0 1 3.5-3.5 3.5 3.5 0 0 1 3.5 3.5 3.5 3.5 0 0 1-3.5 3.5m-13.33 0a3.5 3.5 0 0 1-3.5-3.5 3.5 3.5 0 0 1 3.5-3.5 3.5 3.5 0 0 1 3.5 3.5 3.5 3.5 0 0 1-3.5 3.5m-13.32 0a3.5 3.5 0 0 1-3.5-3.5 3.5 3.5 0 0 1 3.5-3.5 3.5 3.5 0 0 1 3.5 3.5 3.5 3.5 0 0 1-3.5 3.5m-13.34 0a3.5 3.5 0 0 1-3.5-3.5 3.5 3.5 0 0 1 3.5-3.5 3.5 3.5 0 0 1 3.5 3.5 3.5 3.5 0 0 1-3.5 3.5m-13.33 0a3.5 3.5 0 0 1-3.5-3.5 3.5 3.5 0 0 1 3.5-3.5 3.5 3.5 0 0 1 3.5 3.5 3.5 3.5 0 0 1-3.5 3.5m-13.32 0a3.5 3.5 0 0 1-3.5-3.5 3.5 3.5 0 0 1 3.5-3.5 3.5 3.5 0 0 1 3.5 3.5 3.5 3.5 0 0 1-3.5 3.5m-13.34 0a3.5 3.5 0 0 1-3.5-3.5 3.5 3.5 0 0 1 3.5-3.5 3.5 3.5 0 0 1 3.5 3.5 3.5 3.5 0 0 1-3.5 3.5m-13.33 0a3.5 3.5 0 0 1-3.5-3.5 3.5 3.5 0 0 1 3.5-3.5 3.5 3.5 0 0 1 3.5 3.5 3.5 3.5 0 0 1-3.5 3.5m-13.32 0a3.5 3.5 0 0 1-3.5-3.5 3.5 3.5 0 0 1 3.5-3.5 3.5 3.5 0 0 1 3.5 3.5 3.5 3.5 0 0 1-3.5 3.5m-13.34 0a3.5 3.5 0 0 1-3.5-3.5 3.5 3.5 0 0 1 3.5-3.5 3.5 3.5 0 0 1 3.5 3.5 3.5 3.5 0 0 1-3.5 3.5m-14.08 5.9a3.5 3.5 0 0 1-3.5-3.5 3.5 3.5 0 0 1 3.5-3.5 3.5 3.5 0 0 1 3.5 3.5 3.5 3.5 0 0 1-3.5 3.5m-5.92 14.1a3.5 3.5 0 0 1-3.5-3.5 3.5 3.5 0 0 1 3.5-3.5 3.5 3.5 0 0 1 3.5 3.5 3.5 3.5 0 0 1-3.5 3.5" fill="#635dff"/><path d="M1641.05 1299.15a3.5 3.5 0 0 1-3.5-3.5 3.5 3.5 0 0 1 3.5-3.5 3.5 3.5 0 0 1 3.5 3.5 3.5 3.5 0 0 1-3.5 3.5m5.9 14.08a3.5 3.5 0 0 1-3.5-3.5 3.5 3.5 0 0 1 3.5-3.5 3.5 3.5 0 0 1 3.5 3.5 3.5 3.5 0 0 1-3.5 3.5m14.1 5.92a3.5 3.5 0 0 1-3.5-3.5 3.5 3.5 0 0 1 3.5-3.5 3.5 3.5 0 0 1 3.5 3.5 3.5 3.5 0 0 1-3.5 3.5m13.34 0a3.5 3.5 0 0 1-3.5-3.5 3.5 3.5 0 0 1 3.5-3.5 3.5 3.5 0 0 1 3.5 3.5 3.5 3.5 0 0 1-3.5 3.5m13.32 0a3.5 3.5 0 0 1-3.5-3.5 3.5 3.5 0 0 1 3.5-3.5 3.5 3.5 0 0 1 3.5 3.5 3.5 3.5 0 0 1-3.5 3.5m13.33 0a3.5 3.5 0 0 1-3.5-3.5 3.5 3.5 0 0 1 3.5-3.5 3.5 3.5 0 0 1 3.5 3.5 3.5 3.5 0 0 1-3.5 3.5m13.34 0a3.5 3.5 0 0 1-3.5-3.5 3.5 3.5 0 0 1 3.5-3.5 3.5 3.5 0 0 1 3.5 3.5 3.5 3.5 0 0 1-3.5 3.5m13.32 0a3.5 3.5 0 0 1-3.5-3.5 3.5 3.5 0 0 1 3.5-3.5 3.5 3.5 0 0 1 3.5 3.5 3.5 3.5 0 0 1-3.5 3.5m13.33 0a3.5 3.5 0 0 1-3.5-3.5 3.5 3.5 0 0 1 3.5-3.5 3.5 3.5 0 0 1 3.5 3.5 3.5 3.5 0 0 1-3.5 3.5m13.34 0a3.5 3.5 0 0 1-3.5-3.5 3.5 3.5 0 0 1 3.5-3.5 3.5 3.5 0 0 1 3.5 3.5 3.5 3.5 0 0 1-3.5 3.5m13.32 0a3.5 3.5 0 0 1-3.5-3.5 3.5 3.5 0 0 1 3.5-3.5 3.5 3.5 0 0 1 3.5 3.5 3.5 3.5 0 0 1-3.5 3.5m13.33 0a3.5 3.5 0 0 1-3.5-3.5 3.5 3.5 0 0 1 3.5-3.5 3.5 3.5 0 0 1 3.5 3.5 3.5 3.5 0 0 1-3.5 3.5m14.1 5.9a3.5 3.5 0 0 1-3.5-3.5 3.5 3.5 0 0 1 3.5-3.5 3.5 3.5 0 0 1 3.5 3.5 3.5 3.5 0 0 1-3.5 3.5m5.9 14.1a3.5 3.5 0 0 1-3.5-3.5 3.5 3.5 0 0 1 3.5-3.5 3.5 3.5 0 0 1 3.5 3.5 3.5 3.5 0 0 1-3.5 3.5m5.9-14.1a3.5 3.5 0 0 1-3.5-3.5 3.5 3.5 0 0 1 3.5-3.5 3.5 3.5 0 0 1 3.5 3.5 3.5 3.5 0 0 1-3.5 3.5m14.1-5.9a3.5 3.5 0 0 1-3.5-3.5 3.5 3.5 0 0 1 3.5-3.5 3.5 3.5 0 0 1 3.5 3.5 3.5 3.5 0 0 1-3.5 3.5m13.34 0a3.5 3.5 0 0 1-3.5-3.5 3.5 3.5 0 0 1 3.5-3.5 3.5 3.5 0 0 1 3.5 3.5 3.5 3.5 0 0 1-3.5 3.5m13.32 0a3.5 3.5 0 0 1-3.5-3.5 3.5 3.5 0 0 1 3.5-3.5 3.5 3.5 0 0 1 3.5 3.5 3.5 3.5 0 0 1-3.5 3.5m13.33 0a3.5 3.5 0 0 1-3.5-3.5 3.5 3.5 0 0 1 3.5-3.5 3.5 3.5 0 0 1 3.5 3.5 3.5 3.5 0 0 1-3.5 3.5m13.34 0a3.5 3.5 0 0 1-3.5-3.5 3.5 3.5 0 0 1 3.5-3.5 3.5 3.5 0 0 1 3.5 3.5 3.5 3.5 0 0 1-3.5 3.5m13.32 0a3.5 3.5 0 0 1-3.5-3.5 3.5 3.5 0 0 1 3.5-3.5 3.5 3.5 0 0 1 3.5 3.5 3.5 3.5 0 0 1-3.5 3.5m13.33 0a3.5 3.5 0 0 1-3.5-3.5 3.5 3.5 0 0 1 3.5-3.5 3.5 3.5 0 0 1 3.5 3.5 3.5 3.5 0 0 1-3.5 3.5m13.34 0a3.5 3.5 0 0 1-3.5-3.5 3.5 3.5 0 0 1 3.5-3.5 3.5 3.5 0 0 1 3.5 3.5 3.5 3.5 0 0 1-3.5 3.5m13.32 0a3.5 3.5 0 0 1-3.5-3.5 3.5 3.5 0 0 1 3.5-3.5 3.5 3.5 0 0 1 3.5 3.5 3.5 3.5 0 0 1-3.5 3.5m13.33 0a3.5 3.5 0 0 1-3.5-3.5 3.5 3.5 0 0 1 3.5-3.5 3.5 3.5 0 0 1 3.5 3.5 3.5 3.5 0 0 1-3.5 3.5m14.1-5.9a3.5 3.5 0 0 1-3.5-3.5 3.5 3.5 0 0 1 3.5-3.5 3.5 3.5 0 0 1 3.5 3.5 3.5 3.5 0 0 1-3.5 3.5m5.9-14.1a3.5 3.5 0 0 1-3.5-3.5 3.5 3.5 0 0 1 3.5-3.5 3.5 3.5 0 0 1 3.5 3.5 3.5 3.5 0 0 1-3.5 3.5m0 0a3.5 3.5 0 0 1-3.5-3.5 3.5 3.5 0 0 1 3.5-3.5 3.5 3.5 0 0 1 3.5 3.5 3.5 3.5 0 0 1-3.5 3.5m0-339.87a3.5 3.5 0 0 1-3.5-3.5 3.5 3.5 0 0 1 3.5-3.5 3.5 3.5 0 0 1 3.5 3.5 3.5 3.5 0 0 1-3.5 3.5m-5.9-14.08a3.5 3.5 0 0 1-3.5-3.5 3.5 3.5 0 0 1 3.5-3.5 3.5 3.5 0 0 1 3.5 3.5 3.5 3.5 0 0 1-3.5 3.5m-14.1-5.92a3.5 3.5 0 0 1-3.5-3.5 3.5 3.5 0 0 1 3.5-3.5 3.5 3.5 0 0 1 3.5 3.5 3.5 3.5 0 0 1-3.5 3.5m-13.33 0a3.5 3.5 0 0 1-3.5-3.5 3.5 3.5 0 0 1 3.5-3.5 3.5 3.5 0 0 1 3.5 3.5 3.5 3.5 0 0 1-3.5 3.5m-13.33 0a3.5 3.5 0 0 1-3.5-3.5 3.5 3.5 0 0 1 3.5-3.5 3.5 3.5 0 0 1 3.5 3.5 3.5 3.5 0 0 1-3.5 3.5m-13.35 0a3.5 3.5 0 0 1-3.5-3.5 3.5 3.5 0 0 1 3.5-3.5 3.5 3.5 0 0 1 3.5 3.5 3.5 3.5 0 0 1-3.5 3.5m-13.33 0a3.5 3.5 0 0 1-3.5-3.5 3.5 3.5 0 0 1 3.5-3.5 3.5 3.5 0 0 1 3.5 3.5 3.5 3.5 0 0 1-3.5 3.5m-13.33 0a3.5 3.5 0 0 1-3.5-3.5 3.5 3.5 0 0 1 3.5-3.5 3.5 3.5 0 0 1 3.5 3.5 3.5 3.5 0 0 1-3.5 3.5m-13.35 0a3.5 3.5 0 0 1-3.5-3.5 3.5 3.5 0 0 1 3.5-3.5 3.5 3.5 0 0 1 3.5 3.5 3.5 3.5 0 0 1-3.5 3.5m-13.33 0a3.5 3.5 0 0 1-3.5-3.5 3.5 3.5 0 0 1 3.5-3.5 3.5 3.5 0 0 1 3.5 3.5 3.5 3.5 0 0 1-3.5 3.5m-13.33 0a3.5 3.5 0 0 1-3.5-3.5 3.5 3.5 0 0 1 3.5-3.5 3.5 3.5 0 0 1 3.5 3.5 3.5 3.5 0 0 1-3.5 3.5m-13.35 0a3.5 3.5 0 0 1-3.5-3.5 3.5 3.5 0 0 1 3.5-3.5 3.5 3.5 0 0 1 3.5 3.5 3.5 3.5 0 0 1-3.5 3.5m-14.08-5.9a3.5 3.5 0 0 1-3.5-3.5 3.5 3.5 0 0 1 3.5-3.5 3.5 3.5 0 0 1 3.5 3.5 3.5 3.5 0 0 1-3.5 3.5m-5.92-14.1a3.5 3.5 0 0 1-3.5-3.5 3.5 3.5 0 0 1 3.5-3.5 3.5 3.5 0 0 1 3.5 3.5 3.5 3.5 0 0 1-3.5 3.5m-5.9 14.1a3.5 3.5 0 0 1-3.5-3.5 3.5 3.5 0 0 1 3.5-3.5 3.5 3.5 0 0 1 3.5 3.5 3.5 3.5 0 0 1-3.5 3.5m-14.1 5.9a3.5 3.5 0 0 1-3.5-3.5 3.5 3.5 0 0 1 3.5-3.5 3.5 3.5 0 0 1 3.5 3.5 3.5 3.5 0 0 1-3.5 3.5m-13.33 0a3.5 3.5 0 0 1-3.5-3.5 3.5 3.5 0 0 1 3.5-3.5 3.5 3.5 0 0 1 3.5 3.5 3.5 3.5 0 0 1-3.5 3.5m-13.33 0a3.5 3.5 0 0 1-3.5-3.5 3.5 3.5 0 0 1 3.5-3.5 3.5 3.5 0 0 1 3.5 3.5 3.5 3.5 0 0 1-3.5 3.5m-13.35 0a3.5 3.5 0 0 1-3.5-3.5 3.5 3.5 0 0 1 3.5-3.5 3.5 3.5 0 0 1 3.5 3.5 3.5 3.5 0 0 1-3.5 3.5m-13.33 0a3.5 3.5 0 0 1-3.5-3.5 3.5 3.5 0 0 1 3.5-3.5 3.5 3.5 0 0 1 3.5 3.5 3.5 3.5 0 0 1-3.5 3.5m-13.33 0a3.5 3.5 0 0 1-3.5-3.5 3.5 3.5 0 0 1 3.5-3.5 3.5 3.5 0 0 1 3.5 3.5 3.5 3.5 0 0 1-3.5 3.5m-13.35 0a3.5 3.5 0 0 1-3.5-3.5 3.5 3.5 0 0 1 3.5-3.5 3.5 3.5 0 0 1 3.5 3.5 3.5 3.5 0 0 1-3.5 3.5m-13.33 0a3.5 3.5 0 0 1-3.5-3.5 3.5 3.5 0 0 1 3.5-3.5 3.5 3.5 0 0 1 3.5 3.5 3.5 3.5 0 0 1-3.5 3.5m-13.33 0a3.5 3.5 0 0 1-3.5-3.5 3.5 3.5 0 0 1 3.5-3.5 3.5 3.5 0 0 1 3.5 3.5 3.5 3.5 0 0 1-3.5 3.5m-13.35 0a3.5 3.5 0 0 1-3.5-3.5 3.5 3.5 0 0 1 3.5-3.5 3.5 3.5 0 0 1 3.5 3.5 3.5 3.5 0 0 1-3.5 3.5m-14.08 5.9a3.5 3.5 0 0 1-3.5-3.5 3.5 3.5 0 0 1 3.5-3.5 3.5 3.5 0 0 1 3.5 3.5 3.5 3.5 0 0 1-3.5 3.5m-5.92 14.1a3.5 3.5 0 0 1-3.5-3.5 3.5 3.5 0 0 1 3.5-3.5 3.5 3.5 0 0 1 3.5 3.5 3.5 3.5 0 0 1-3.5 3.5" fill="#fc9432"/><path d="M1862.45 1259.44a15 15 0 0 0 3-9v-30.25a15 15 0 0 0-3-9l-18.15-24.2a17.83 17.83 0 0 0-7.64-5.86l-30.97-12.4a12.5 12.5 0 0 0-9.3 0l-30.96 12.4a17.83 17.83 0 0 0-7.64 5.85l-18.15 24.2a15 15 0 0 0-3 9v30.24a15 15 0 0 0 3 9l18.15 24.2a17.83 17.83 0 0 0 7.64 5.86l30.97 12.4a12.5 12.5 0 0 0 9.3 0l30.96-12.4a17.83 17.83 0 0 0 7.64-5.86z" stroke="#fc9432" stroke-width="5" fill="#ffe6a1"/><use xlink:href="#a" transform="matrix(1,0,0,1,1736.6528720311867,1166.8943765510182) translate(29.255859375 80.921875)"/><path d="M1851.2 1124.3l-.05 1.78-.18 2-.36 2.3-.58 2.68-.95 3.3-1.54 4.27-2.76 6.35-6.64 13.4-2.64-1.3 6.6-13.34 2.7-6.2 1.46-4.1.9-3.1.55-2.52.34-2.1.16-1.8.05-1.6-.02-.4h2.95zm-59.47-29.05l-.84.35-2 1.22-1.58 1.34-14.16-.13.02-2.95z" stroke="#fc9432" stroke-width=".05" fill="#fc9432"/><path d="M1773.22 1095.08l-.03 2.95-1.54-.02v-2.94z" fill="#fc9432"/><path stroke="#fc9432" stroke-width=".05" fill="#fc9432"/><path d="M1842.87 1164.4l-12.5 8.3-.94-14.96z" fill="#fff"/><path d="M1845.8 1164.2l-16.73 11.15-1.28-20.06zm-14.1 5.87l8.22-5.48-8.86-4.4z" stroke="#fc9432" stroke-width=".05" fill="#fc9432"/><path d="M1784.22 1108.94a13.47 13.47 0 0 1 13.47-13.47h89.6a13.47 13.47 0 0 1 13.48 13.47 13.47 13.47 0 0 1-13.47 13.47h-89.6a13.47 13.47 0 0 1-13.48-13.46z" stroke="#fc9432" stroke-width="3" fill-opacity="0"/><use xlink:href="#b" transform="matrix(1,0,0,1,1796.2210354136973,1099.4676716915885) translate(0 14.991319444444445)"/><use xlink:href="#c" transform="matrix(1,0,0,1,1796.2210354136973,1099.4676716915885) translate(26.597222222222225 14.991319444444445)"/><path d="M1900.22 1197.47l-5.13 6.96-4.6 5.7-4.12 4.7-3.7 3.87-3.32 3.2-3.02 2.7-2.75 2.22-2.52 1.88-1.05.72-1.67-2.43 1-.7 2.42-1.8 2.65-2.16 2.92-2.6 3.25-3.12 3.6-3.78 4.03-4.6 4.52-5.6 5.07-6.87 3.45-5.12h3.56zm8.17-324.87l3.23.23 3.03.34 2.86.45 2.7.54 2.57.62 2.43.7 2.34.8 2.24.84 2.17.93 2.1 1 2 1.07 1.96 1.15 1.9 1.23 1.85 1.3 1.8 1.4 1.78 1.5 1.74 1.6 1.7 1.7 1.68 1.8 1.66 1.95 1.63 2.1 1.6 2.25 1.6 2.43 1.55 2.63 1.54 2.85 1.5 3.13 1.5 3.4 1.44 3.74 1.4 4.12 1.33 4.56 1.26 5.08 1.15 5.68 1.02 6.38.85 7.2.6 8.13.32 9.26-.1 10.54-.6 12.03-1.27 13.67-2.1 15.46-3.06 17.26-4.17 18.9-5.34 20.1-6.42 20.62-7.23 20.24-7.68 18.95-1.6 3.5h-3.24l2.13-4.66 7.63-18.83 7.18-20.12 6.37-20.5 5.3-20 4.17-18.77 3.05-17.14 2.07-15.33 1.26-13.54.6-11.9.1-10.43-.32-9.14-.6-8.03-.83-7.07-1-6.25-1.14-5.56-1.22-4.97-1.3-4.45-1.35-4-1.4-3.63-1.44-3.3-1.47-3-1.48-2.74-1.5-2.5-1.5-2.34-1.55-2.15-1.55-1.98-1.58-1.86-1.6-1.72-1.6-1.62-1.66-1.5-1.66-1.4-1.7-1.34-1.77-1.23-1.8-1.17-1.84-1.08-1.9-1.02-1.98-.94-2.04-.88-2.12-.82-2.22-.74-2.33-.67-2.45-.6-2.58-.5-2.73-.43-2.9-.33-3.12-.22-3.34-.1-3.6.05-3.9.2-4.24.43-4.66.65-5.14.94-5.7 1.3-6.4 1.72-7.2 2.28-8.2 2.98-9.42 3.87-10.93 5.04-12.83 6.6-5.77 3.28-1.45-2.57 5.82-3.3 12.95-6.64 11.04-5.1 9.53-3.9 8.3-3.03 7.33-2.32 6.5-1.75 5.84-1.32 5.26-.97 4.78-.66 4.4-.43 4-.22 3.73-.05z" stroke="#fc9432" stroke-width=".05" fill="#fc9432"/><path d="M1870.06 1229.4l-2.1 1.44v-3.57l.43-.3z" fill="#fc9432"/><path stroke="#fc9432" stroke-width=".05" fill="#fc9432"/><path d="M1818.65 910.73l-15 .04 7.46-13z" fill="#fff"/><path d="M1821.2 912.2l-20.1.05 10-17.44zm-15-2.9l9.9-.03-4.98-8.56z" stroke="#fc9432" stroke-width=".05" fill="#fc9432"/><path d="M1873.4 1164.32a24.84 24.84 0 0 1 24.82-24.84h40.73a24.84 24.84 0 0 1 24.84 24.84 24.84 24.84 0 0 1-24.85 24.83h-40.73a24.84 24.84 0 0 1-24.83-24.84z" stroke="#fc9432" stroke-width="3" fill-opacity="0"/><use xlink:href="#d" transform="matrix(1,0,0,1,1885.3902687067643,1143.4798081892093) translate(0 14.991319444444445)"/><use xlink:href="#e" transform="matrix(1,0,0,1,1885.3902687067643,1143.4798081892093) translate(0 37.72048611111111)"/><use xlink:href="#f" transform="matrix(1,0,0,1,1885.3902687067643,1143.4798081892093) translate(21.119791666666668 37.72048611111111)"/><path d="M1468.13 1076.3a50 50 0 0 1 50-50h201.03a50 50 0 0 1 50 50v40.5a50 50 0 0 1-50 50h-201.03a50 50 0 0 1-50-50z" stroke="#00c2a8" stroke-width="5" fill="#c3f7c8"/><path d="M1528.23 1033.7a6 6 0 0 1 6-6h171.53a6 6 0 0 1 6 6v23.16a6 6 0 0 1-6 6h-171.53a6 6 0 0 1-6-6z" fill="none"/><use xlink:href="#g" transform="matrix(1,0,0,1,1528.2341424516217,1027.6901974805066) translate(10.31201171875 26.07421875)"/><use xlink:href="#h" transform="matrix(1,0,0,1,1528.2341424516217,1027.6901974805066) translate(118.37451171875 26.07421875)"/><path d="M1542.58 973.7a6 6 0 0 1 6-6h142.83a6 6 0 0 1 6 6v48a6 6 0 0 1-6 6H1548.6a6 6 0 0 1-6-6z" fill="none"/><use xlink:href="#i" transform="matrix(1,0,0,1,1542.5827802085514,967.6901974805065) translate(-4.86328125 43.232421875)"/><path d="M1378.75 1138.68l-.13 1.67-.03 1.73.05 1.8.17 1.85.3 1.94.42 2.05.58 2.17.76 2.3.98 2.46 1.22 2.65 1.53 2.88 1.9 3.13 2.37 3.43 1.86 2.4-2.33 1.82-1.92-2.48-2.45-3.56-2-3.26-1.6-3.02-1.3-2.8-1.02-2.63-.8-2.47-.63-2.33-.46-2.2-.3-2.12-.2-2.02-.07-1.96.04-1.9.15-1.83.03-.24h2.98zm85.4-40.64l-10.9.22-10.67.82-9.16 1.22-7.85 1.5-6.7 1.7-5.75 1.8-4.9 1.84-2.4 1.05h-6.72l3.62-1.86 4.37-1.93 5.06-1.9 5.9-1.85 6.87-1.72 8-1.54 9.34-1.26 10.84-.83 11-.2z" stroke="#635dff" stroke-width=".05" fill="#635dff"/><path d="M1465.63 1098l-1.5.04-.07-2.94 1.57-.04z" fill="#635dff"/><path stroke="#635dff" stroke-width=".05" fill="#635dff"/><path d="M1399.44 1182.63l-14.35-4.4 10.96-10.22z" fill="#fff"/><path d="M1401.45 1184.78l-19.23-5.87 14.7-13.7zm-13.48-7.2l9.46 2.9-2.23-9.65z" stroke="#635dff" stroke-width=".05" fill="#635dff"/><path d="M1325.1 1123.16a13.47 13.47 0 0 1 13.48-13.47h89.62a13.47 13.47 0 0 1 13.47 13.46 13.47 13.47 0 0 1-13.47 13.47h-89.62a13.47 13.47 0 0 1-13.47-13.47z" stroke="#635dff" stroke-width="3" fill-opacity="0"/><use xlink:href="#j" transform="matrix(1,0,0,1,1337.1095438185562,1113.6891541614416) translate(0 14.991319444444445)"/><use xlink:href="#k" transform="matrix(1,0,0,1,1337.1095438185562,1113.6891541614416) translate(26.597222222222225 14.991319444444445)"/><path d="M1440.48 1168.7a8 8 0 0 0-8.48 0l-52.72 32.94a9.02 9.02 0 0 0-4.24 7.65v51.2a9.02 9.02 0 0 0 4.24 7.64l52.72 32.95a8 8 0 0 0 8.48 0l52.72-32.96a9.02 9.02 0 0 0 4.24-7.65v-51.2a9.02 9.02 0 0 0-4.24-7.66z" stroke="#635dff" stroke-width="5" fill="#9391ff"/><use xlink:href="#l" transform="matrix(1,0,0,1,1375.0423735653142,1166.044376551018) translate(26.75390625 81.421875)"/><path d="M1319.58 944.17a6 6 0 0 1 6-6h221.33a6 6 0 0 1 6 6v48a6 6 0 0 1-6 6H1325.6a6 6 0 0 1-6-6z" fill="none"/><use xlink:href="#m" transform="matrix(1,0,0,1,1319.5757068986475,938.1744612067383) translate(65.33984375 43.232421875)"/><path d="M1684.4 944.17a6 6 0 0 1 6-6h221.32a6 6 0 0 1 6 6v48a6 6 0 0 1-6 6H1690.4a6 6 0 0 1-6-6z" fill="none"/><use xlink:href="#n" transform="matrix(1,0,0,1,1684.38620536452,938.1744612067383) translate(42.634765625 43.232421875)"/><path d="M1583.82 1055.4a6 6 0 0 1 6-6h57.02a6 6 0 0 1 6 6v23.18a6 6 0 0 1-6 6h-57.02a6 6 0 0 1-6-6z" fill="none"/><use xlink:href="#o" transform="matrix(1,0,0,1,1583.8178549406061,1049.4022075453693) translate(29.9599609375 26.07421875)"/><path d="M1534.5 877.5l-18.17-1.6-13.53-.52-10.06.12-7.83.5-6.27.7-5.17.85-4.33.94-3.68 1-3.17 1-2.77 1.07-2.42 1.07-2.17 1.08-1.92 1.1-1.74 1.1-1.58 1.1-1.44 1.14-1.32 1.14-1.2 1.17-1.12 1.18-1.04 1.2-.95 1.26-.9 1.3-.24.37" stroke="#635dff" stroke-width="3" stroke-linejoin="round" fill="none"/><path d="M1536.12 876.16l-.18 2.2h.4l.06.8-2.06-.2.26-2.93z" stroke="#635dff" stroke-width=".05" fill="#635dff"/><path d="M1437.15 909.42l-3.24-14.65 14.32 4.53z" stroke="#635dff" stroke-width="3" fill="#fff"/><path d="M1301.98 1048.32a36.25 36.25 0 0 1 36.26-36.25h59.5a36.25 36.25 0 0 1 36.24 36.25 36.25 36.25 0 0 1-36.25 36.26h-59.5a36.25 36.25 0 0 1-36.25-36.26z" stroke="#635dff" stroke-width="5" fill="#9391ff"/><use xlink:href="#p" transform="matrix(1,0,0,1,1306.9835080144214,1017.070411503424) translate(13.355260416666662 22.486979166666668)"/><use xlink:href="#q" transform="matrix(1,0,0,1,1306.9835080144214,1017.070411503424) translate(79.51411458333334 22.486979166666668)"/><use xlink:href="#r" transform="matrix(1,0,0,1,1306.9835080144214,1017.070411503424) translate(21.701614583333324 56.58072916666667)"/><path d="M1298.54 1047.14l-5.7-7.18-5.54-7.6-4.64-6.97-3.9-6.43-3.28-5.95-2.76-5.55-2.32-5.2-1.95-4.9-1.6-4.63-1.35-4.4-1.08-4.2-.86-4.02-.65-3.87-.47-3.73-.3-3.6-.15-3.52v-3.43l.13-3.36.3-3.28.4-3.24.54-3.2.67-3.18.82-3.16.95-3.15 1.1-3.15 1.24-3.16 1.42-3.2 1.6-3.2 1.76-3.23 2-3.28 2.2-3.35 2.48-3.4 2.76-3.5 3.1-3.57 3.43-3.68 3.87-3.78 4.33-3.9 4.9-4.05 5.5-4.2 6.25-4.33 7.1-4.5 8.08-4.68 9.25-4.84 10.6-5 12.17-5.1 13.97-5.2 16.02-5.22 18.28-5.1 20.72-4.87 23.15-4.43 25.4-3.76 27.2-2.87 28.2-1.8 28.3-.6 27.42.55 25.7 1.6 23.42 2.43 20.9 3.07 18.38 3.5 16 3.72 13.86 3.85 11.98 3.87 10.35 3.84 8.96 3.76 7.8 3.66 6.78 3.54 5.95 3.42 5.22 3.3 4.6 3.2 4.08 3.1 3.6 2.97 3.24 2.9 2.87 2.8 2.57 2.75 2.32 2.68 2.07 2.62 1.87 2.56 1.55 2.33" stroke="#fc9432" stroke-width="3" stroke-linejoin="round" fill="none"/><path d="M1299.67 1050.82v.14l-.1-.14zm-.36-.34l-1.94-2.45 2.28-1.82z" stroke="#fc9432" stroke-width=".05" fill="#fc9432"/><path d="M1799.78 909.56l-12.3-8.58 13.58-6.36z" stroke="#fc9432" stroke-width="3" fill="#fff"/><path d="M1538.65 875.87a30 30 0 0 1 30-30h100a30 30 0 0 1 30 30 30 30 0 0 1-30 30h-100a30 30 0 0 1-30-30z" stroke="#635dff" stroke-width="5" fill="#9391ff"/><use xlink:href="#s" transform="matrix(1,0,0,1,1543.6476227982507,850.8668609838452) translate(7.044270833333329 31.861979166666668)"/><use xlink:href="#t" transform="matrix(1,0,0,1,1543.6476227982507,850.8668609838452) translate(91.25 31.861979166666668)"/><path d="M1490.73 1080.88a6 6 0 0 1 6-6h246.53a6 6 0 0 1 6 6v68a6 6 0 0 1-6 6h-246.53a6 6 0 0 1-6-6z" fill="none"/><use xlink:href="#u" transform="matrix(1,0,0,1,1490.7347355092568,1074.8789931614565) translate(37.6748046875 21.9248046875)"/><use xlink:href="#v" transform="matrix(1,0,0,1,1490.7347355092568,1074.8789931614565) translate(116.728515625 21.9248046875)"/><use xlink:href="#w" transform="matrix(1,0,0,1,1490.7347355092568,1074.8789931614565) translate(160.654296875 21.9248046875)"/><use xlink:href="#x" transform="matrix(1,0,0,1,1490.7347355092568,1074.8789931614565) translate(115.712890625 49.6259765625)"/><use xlink:href="#y" transform="matrix(1,0,0,1,1490.7347355092568,1074.8789931614565) translate(35.07861328125 77.3271484375)"/><use xlink:href="#v" transform="matrix(1,0,0,1,1490.7347355092568,1074.8789931614565) translate(118.77880859375 77.3271484375)"/><use xlink:href="#z" transform="matrix(1,0,0,1,1490.7347355092568,1074.8789931614565) translate(162.70458984375 77.3271484375)"/><path d="M1492.73 1114.88h6.18m8.23 0h12.35m8.23 0h12.35m8.23 0h12.34m8.23 0h12.34m8.22 0h6.17M1645.04 1114.88h6.17m8.24 0h12.34m8.23 0h12.35m8.23 0h12.35m8.22 0h12.35m8.22 0h6.18" stroke="#00c2a8" stroke-width="4" stroke-linecap="round" fill="none"/><path d="M1265.54 990.9l3.27 26.8 4.1 24.9 4.78 22.97 5.3 21.05 5.7 19.14 5.92 17.25 6.03 15.45 6.03 13.7 5.92 12.07 5.75 10.56 5.5 9.2 5.25 7.96 4.95 6.88 4.64 5.9 4.34 5.1 4.06 4.34 3.78 3.73 3.5 3.18 3.27 2.73 3.06 2.34 2.83 2 2.64 1.7 2.5 1.44 2.32 1.23.86.42-1.27 2.66-.92-.44-2.44-1.3-2.6-1.5-2.75-1.76-2.94-2.06-3.13-2.4-3.36-2.82-3.6-3.27-3.85-3.8-4.14-4.46-4.4-5.17-4.73-6-5.02-6.98-5.3-8.07-5.58-9.3-5.8-10.68-6-12.18-6.06-13.82-6.07-15.55-5.96-17.37-5.72-19.26-5.34-21.17-4.8-23.1-4.12-25.02-3.28-26.9-1.96-24 2.94-.23z" stroke="#fc9432" stroke-width=".05" fill="#fc9432"/><path d="M1372.54 1233.26v3.27l-2.02-.97 1.27-2.66z" fill="#fc9432"/><path stroke="#fc9432" stroke-width=".05" fill="#fc9432"/><path d="M1263.58 967l-2.94.25-.12-1.53 2.94-.24z" stroke="#fc9432" stroke-width=".05" fill="#fc9432"/><path d="M1629 1285.9l-30.16 38.4-4.3 4.64-3.76 3.73-3.45 3.15-3.27 2.74-3.16 2.42-3.1 2.18-3.05 1.97-3.07 1.8-3.1 1.64-3.14 1.5-3.23 1.38-3.32 1.26-3.46 1.16-3.6 1.03-3.82.9-4.04.8-4.3.67-4.64.5-5.04.36-5.5.15-6.07-.1-6.77-.38-7.64-.76-8.74-1.24-10.13-1.88-11.93-2.73-14.33-3.92-3.82-1.22.9-2.8 3.75 1.18 14.22 3.9 11.8 2.7 10 1.85 8.62 1.2 7.52.76 6.66.38 5.95.1 5.37-.16 4.9-.34 4.53-.5 4.18-.64 3.92-.77 3.7-.9 3.5-1 3.33-1.1 3.2-1.2 3.12-1.35 3.04-1.45 3-1.58 2.94-1.73 2.96-1.9 3-2.1 3.05-2.36 3.18-2.66 3.36-3.07 3.67-3.64 4.2-4.52 30.13-38.34 2-2.35h3.87zm103.7-49.07l-7.03.2-7.6.5-6.9.78-6.28.97-5.8 1.14-5.36 1.3-5 1.43-4.72 1.57-4.47 1.7-4.27 1.8-4.1 1.97-2.96 1.57h-5.93l3.47-2.04 4.08-2.16 4.2-2 4.4-1.9 4.58-1.72 4.83-1.6 5.13-1.47 5.48-1.32 5.9-1.16 6.4-1 7.02-.76 7.73-.53 7.08-.18z" stroke="#635dff" stroke-width=".05" fill="#635dff"/><path d="M1734.15 1236.8l-1.5.04-.08-2.95 1.58-.06z" fill="#635dff"/><path stroke="#635dff" stroke-width=".05" fill="#635dff"/><path d="M1451.76 1351.33l-10.05-11.14 14.68-3.15z" fill="#fff"/><path d="M1452.38 1354.2l-13.48-14.92 19.67-4.2zm-7.86-13.1l6.62 7.34 3.05-9.4z" stroke="#635dff" stroke-width=".05" fill="#635dff"/><path d="M1574.88 1266.7a13.47 13.47 0 0 1 13.47-13.46h113.1a13.47 13.47 0 0 1 13.48 13.47 13.47 13.47 0 0 1-13.47 13.5h-113.1a13.47 13.47 0 0 1-13.48-13.5z" stroke="#635dff" stroke-width="3" fill-opacity="0"/><g><use xlink:href="#A" transform="matrix(1,0,0,1,1586.8804650921095,1257.2450035423396) translate(0 14.991319444444445)"/><use xlink:href="#B" transform="matrix(1,0,0,1,1586.8804650921095,1257.2450035423396) translate(54.67881944444446 14.991319444444445)"/><use xlink:href="#C" transform="matrix(1,0,0,1,1586.8804650921095,1257.2450035423396) translate(80.53819444444446 14.991319444444445)"/></g><defs><path d="M494-979c203 0 420 127 420 319 0 109-70 192-210 251-53 22-170 52-351 90-101 22-152 85-152 189h701V0H68v-130c0-167 83-269 250-305 133-28 223-50 271-67 129-45 194-97 194-158 0-133-117-186-288-189-126-2-301 76-294 193H69c-7-196 219-323 425-323" id="D"/><path d="M-2-478c0-256 249-501 505-501 147 0 261 65 343 196v-572h132V0H846v-174C761-43 645 22 498 22 243 22-2-223-2-478zm843 0c0-191-151-371-338-371S128-665 128-478s183 370 370 370c188 0 343-180 343-370" id="E"/><path d="M53-760v-98c81 0 124-33 128-99h90v827h70V0H53v-130h88v-630H53" id="F"/><g id="a"><use transform="matrix(0.01953125,0,0,0.01953125,0,0)" xlink:href="#D"/><use transform="matrix(0.01953125,0,0,0.01953125,20.3125,0)" xlink:href="#E"/><use transform="matrix(0.01953125,0,0,0.01953125,42.05078125,0)" xlink:href="#F"/><use transform="matrix(0.01953125,0,0,0.01953125,50.17578125,0)" xlink:href="#D"/></g><path fill="#fc9432" d="M32-990c0-232 243-390 485-390 230 0 384 80 460 242 25 53 37 112 37 177H848c0-169-110-254-331-254-175 0-321 66-320 224 0 68 25 124 82 157 72 43 313 83 425 114 184 50 303 136 310 344 8 234-251 397-495 397C251 21 32-142 31-398h166c5 169 112 254 321 254 161 0 330-78 330-223 0-98-70-169-211-207-131-36-266-59-393-103C99-727 32-841 32-990" id="G"/><path fill="#fc9432" d="M816-616c-46-109-154-210-294-210-133 0-258 109-301 210h595zM31-484c0-260 230-507 491-507 282 0 495 254 487 541H196c10 148 163 311 326 306 147-5 277-104 326-215l166 28C947-150 753 16 522 21 260 27 31-223 31-484" id="H"/><g id="b"><use transform="matrix(0.008680555555555556,0,0,0.008680555555555556,0,0)" xlink:href="#G"/><use transform="matrix(0.008680555555555556,0,0,0.008680555555555556,10.026041666666668,0)" xlink:href="#H"/></g><path fill="#fc9432" d="M223-484c0 174 142 340 313 340 169 0 319-168 319-340 0-174-147-342-319-342-173 0-313 166-313 342zm798 0c0 261-225 505-485 505-129 0-235-50-318-149v516H53V-970h165v128c83-99 189-149 318-149 260 0 485 246 485 507" id="I"/><path fill="#fc9432" d="M535-805c-177 0-317 145-317 321V0H51v-970h167v134c85-89 189-134 310-134h218v218c-83-35-153-53-211-53" id="J"/><path fill="#fc9432" d="M30-484c0-265 224-507 485-507 196 0 345 102 446 305H770c-63-93-148-140-255-140-177 0-319 167-319 342 0 176 146 340 319 340 93 0 176-43 249-128h193C846-77 699 21 515 21 254 21 30-224 30-484" id="K"/><path fill="#fc9432" d="M233-1172c-50 0-96-44-96-94 0-49 46-93 96-93s96 43 96 93c0 52-44 94-96 94zM26-970h289V0H150v-805H26v-165" id="L"/><path fill="#fc9432" d="M68-580C-45-823 215-987 454-987c229 0 422 106 446 301l-161 34c-17-73-62-125-139-149-121-38-274-36-352 29-25 21-38 44-38 71 0 66 59 112 178 131 86 13 176 12 261 32 115 27 244 96 244 266 0 81-40 141-102 191C645 38 359 49 192-49 101-102 48-180 33-282l163-35c5 118 149 172 287 172 93 0 238-46 238-127 0-45-37-74-103-103-48-21-337-53-386-71-61-22-144-92-164-134" id="M"/><path fill="#fc9432" d="M484-144c91 0 275-43 275-120v-184c-54 18-283 13-339 27-84 21-172 73-172 157 0 80 79 120 236 120zm27-847c168 0 413 106 413 260v563c0 15 16 23 48 26-4 64-6 118-6 163-81-4-138-29-172-76-80 51-181 76-304 76C213 21 75-75 75-266c0-155 132-276 270-302-15-8 340-16 395-49 13-7 20-20 21-39-1 24-2 8-2-49 0-71-154-124-234-124-152 0-248 58-288 173L79-690c32-191 203-301 432-301" id="N"/><g id="c"><use transform="matrix(0.008680555555555556,0,0,0.008680555555555556,0,0)" xlink:href="#I"/><use transform="matrix(0.008680555555555556,0,0,0.008680555555555556,9.921875,0)" xlink:href="#J"/><use transform="matrix(0.008680555555555556,0,0,0.008680555555555556,16.927083333333332,0)" xlink:href="#H"/><use transform="matrix(0.008680555555555556,0,0,0.008680555555555556,26.953125,0)" xlink:href="#K"/><use transform="matrix(0.008680555555555556,0,0,0.008680555555555556,36.05034722222222,0)" xlink:href="#L"/><use transform="matrix(0.008680555555555556,0,0,0.008680555555555556,39.78298611111111,0)" xlink:href="#M"/><use transform="matrix(0.008680555555555556,0,0,0.008680555555555556,48.75,0)" xlink:href="#N"/><use transform="matrix(0.008680555555555556,0,0,0.008680555555555556,58.263888888888886,0)" xlink:href="#J"/></g><path fill="#fc9432" d="M470-144c172 0 264-158 264-340v-486h165V0H734v-96C656-18 568 21 470 21 202 21 46-186 46-463v-507h165v507c-4 167 99 319 259 319" id="O"/><path fill="#fc9432" d="M838-484c0-173-151-342-322-342-177 0-319 167-319 342 0 176 146 340 319 340 171 0 322-167 322-340zm-807 0c0-265 224-507 485-507 260 0 487 246 487 507 0 260-229 505-487 505C255 21 31-224 31-484" id="P"/><g id="d"><use transform="matrix(0.008680555555555556,0,0,0.008680555555555556,0,0)" xlink:href="#G"/><use transform="matrix(0.008680555555555556,0,0,0.008680555555555556,10.026041666666668,0)" xlink:href="#O"/><use transform="matrix(0.008680555555555556,0,0,0.008680555555555556,19.314236111111114,0)" xlink:href="#K"/><use transform="matrix(0.008680555555555556,0,0,0.008680555555555556,28.411458333333336,0)" xlink:href="#H"/><use transform="matrix(0.008680555555555556,0,0,0.008680555555555556,38.4375,0)" xlink:href="#M"/><use transform="matrix(0.008680555555555556,0,0,0.008680555555555556,47.404513888888886,0)" xlink:href="#M"/><use transform="matrix(0.008680555555555556,0,0,0.008680555555555556,56.37152777777777,0)" xlink:href="#P"/></g><path fill="#fc9432" d="M565-1357L165 0H-13l404-1357h174" id="Q"/><g id="e"><use transform="matrix(0.008680555555555556,0,0,0.008680555555555556,0,0)" xlink:href="#K"/><use transform="matrix(0.008680555555555556,0,0,0.008680555555555556,9.097222222222223,0)" xlink:href="#Q"/></g><path fill="#fc9432" d="M218-1357v689h516v-689h165V0H734v-503H218V0H53v-1357h165" id="R"/><g id="f"><use transform="matrix(0.008680555555555556,0,0,0.008680555555555556,0,0)" xlink:href="#R"/><use transform="matrix(0.008680555555555556,0,0,0.008680555555555556,9.288194444444445,0)" xlink:href="#P"/><use transform="matrix(0.008680555555555556,0,0,0.008680555555555556,19.314236111111114,0)" xlink:href="#I"/><use transform="matrix(0.008680555555555556,0,0,0.008680555555555556,29.23611111111111,0)" xlink:href="#H"/></g><path d="M187-490c-5 209 147 382 353 382 81 0 151-23 210-69L609-330l99-84 128 140c38-62 57-134 57-216v-377c5-207-149-382-353-382s-353 175-353 382v377zm353-889c272 0 483 251 483 528v345c0 123-34 232-101 325 19 21 52 57 101 110v93h-91c-22-23-54-58-96-105C750-13 651 22 540 22 268 22 57-229 57-506v-345c-8-277 211-528 483-528" id="S"/><path d="M483-108c191 0 291-169 291-370v-479h130V0H774v-137C701-31 604 22 483 22 219 22 67-183 67-456v-501h130v501c-4 182 112 348 286 348" id="T"/><path d="M497-108c108 0 303-51 303-143v-220c-2 23-338 19-365 38-104 20-200 82-200 182 0 95 87 143 262 143zm28-871c161 0 405 100 405 248v579c0 27 16 41 48 44-1 21-3 64-5 129-72-4-122-33-151-87-82 59-188 88-318 88C233 22 97-70 97-253c0-145 124-253 248-288 70-20 368-9 427-58 17-9 27-25 29-46-1 7-1-13-1-60 0-84-168-147-260-147-166 0-269 58-309 174l-126-27c31-178 203-274 420-274" id="U"/><path d="M86-1355h132V0H86v-1355" id="V"/><path d="M76-478c0-256 220-501 478-501 147 0 262 65 347 196v-174h130V399H901v-573C816-43 701 22 554 22 300 22 76-220 76-478zm130 0c0 189 161 370 348 370 188 0 342-180 342-370 0-191-154-371-342-371-186 0-348 182-348 371" id="W"/><path d="M52-478c0-256 228-501 485-501 264 0 489 248 480 516H180c0 180 174 355 357 355 148 0 301-110 347-219l130 23C955-140 749 17 537 22 280 28 52-222 52-478zm815-115c-38-129-172-257-330-256-158 0-295 130-340 256h670" id="X"/><path d="M550-827c-191 0-346 159-346 349V0H72v-957h132v174c85-116 198-174 339-174h204v174c-69-29-134-44-197-44" id="Y"/><g id="g"><use transform="matrix(0.0126953125,0,0,0.0126953125,0,0)" xlink:href="#S"/><use transform="matrix(0.0126953125,0,0,0.0126953125,14.4599609375,0)" xlink:href="#T"/><use transform="matrix(0.0126953125,0,0,0.0126953125,27.6630859375,0)" xlink:href="#U"/><use transform="matrix(0.0126953125,0,0,0.0126953125,41.1962890625,0)" xlink:href="#V"/><use transform="matrix(0.0126953125,0,0,0.0126953125,45.703125,0)" xlink:href="#W"/><use transform="matrix(0.0126953125,0,0,0.0126953125,60.505859375,0)" xlink:href="#T"/><use transform="matrix(0.0126953125,0,0,0.0126953125,73.708984375,0)" xlink:href="#X"/><use transform="matrix(0.0126953125,0,0,0.0126953125,87.9912109375,0)" xlink:href="#Y"/></g><path d="M695-649l-152-510-156 510h308zM888 0L732-517H348L192 0H57l406-1355h160L1029 0H888" id="Z"/><path d="M51-478c0-256 221-509 478-501 201 6 353 126 426 274H803c-71-96-163-144-274-144-189 0-348 180-348 372 0 191 160 369 348 369 100 0 189-44 266-132h155C852-65 712 22 529 22 275 22 51-223 51-478zm513 637C553 130 420 9 381-31h129C527 6 637 52 659 79s35 62 35 107c0 81-57 121-172 121l-68-113c36-9 73-21 110-35" id="aa"/><path d="M522-108c108 0 303-51 303-143v-220c-2 23-338 19-365 38-104 20-200 82-200 182 0 95 87 143 262 143zm28-871c161 0 405 100 405 248v579c0 27 16 41 48 44-1 21-3 64-5 129-72-4-122-33-151-87-82 59-188 88-318 88-271 0-407-92-407-275 0-145 124-253 248-288 70-20 368-9 427-58 17-9 27-25 29-46-1 7-1-13-1-60 0-84-168-147-260-147-166 0-269 58-309 174l-126-27c31-178 203-274 420-274zm-136-330c51-13 186 84 224 84 29 0 55-27 78-81l123 46c-56 162-190 218-332 128-46-29-76-43-93-43-31 0-57 27-78 82l-123-49c39-111 106-167 201-167" id="ab"/><path d="M881-477c0-189-160-372-351-372-189 0-348 181-348 372s160 369 348 369 351-180 351-369zm-829-1c0-256 220-501 478-501 257 0 481 246 481 502S785 22 530 22C276 22 52-223 52-478" id="ac"/><g id="h"><use transform="matrix(0.0126953125,0,0,0.0126953125,0,0)" xlink:href="#Z"/><use transform="matrix(0.0126953125,0,0,0.0126953125,14.599609375,0)" xlink:href="#aa"/><use transform="matrix(0.0126953125,0,0,0.0126953125,26.9267578125,0)" xlink:href="#ab"/><use transform="matrix(0.0126953125,0,0,0.0126953125,41.03125,0)" xlink:href="#ac"/></g><path fill="#00c2a8" d="M242-567c0 228 105 412 323 412 121 0 200-56 237-168 65-27 164-31 164 55 0 17-9 46-27 85C873-38 748 34 563 34 230 34 46-235 46-579c0-191 46-368 140-532 110-192 254-288 430-288 141 0 249 78 304 240 22 65-30 128-94 126-35 0-69-28-102-85s-70-85-111-85c-115 0-209 81-282 242-59 131-89 262-89 394" id="ad"/><path fill="#00c2a8" d="M529-872c255 0 326 211 326 503 0 146-10 253-32 320-18 56-52 83-99 83-53 0-95-41-94-94 4-187 101-621-111-619-95 0-163 74-220 216-24 59-14 117-17 192-3 89-6 176-14 261-41 29-77 44-108 44-45 0-71-81-71-130 2-345 13-664 1-1005-5-133-25-201-25-206-1-52 39-92 90-92 54 0 94 31 103 97 19 137 4 374 7 532 83-68 171-102 264-102" id="ae"/><path fill="#00c2a8" d="M836-686c0 187-30 463 2 630-71 75-129 122-171 10-82 53-167 80-256 80C187 34 46-160 46-393c0-281 308-555 614-431 19-27 45-40 76-40 67 0 100 59 100 178zM249-382c0 105 58 213 157 213 80 0 157-36 232-109 3-73 4-181 4-326 1 1-110-58-139-48-132-6-254 139-254 270" id="af"/><path fill="#00c2a8" d="M468-848c193 0 298 180 298 385 0 53-38 94-92 94-48 0-81-25-95-75-20-75-16-213-105-213-95 0-223 127-223 222v425c-45 29-84 44-116 44-42 0-63-31-63-92 0-166-4-210-4-604 0-125 33-188 99-188 53 0 83 27 91 82 68-53 138-80 210-80" id="ag"/><path fill="#00c2a8" d="M693-317c70-2 127 82 85 150C718-70 552 31 404 34 201 38 40-151 44-358c4-212 146-388 302-458 115-51 232-54 316 28 45 43 73 95 84 157-37 55-72 83-106 83-41 12-94-120-135-109-108-10-258 167-258 275 0 142 52 213 157 213 43 0 97-25 163-74s108-74 126-74" id="ah"/><path fill="#00c2a8" d="M584-872c50 0 94 39 94 90 0 53-31 85-94 98-29 6-81 10-156 10v662c-58 31-101 46-128 46-39 0-59-22-59-65 2-210 3-252 3-645-82 0-147-4-195-12-65-109-48-182 122-181 13-1 61 4 73 4v-364c-1-48 42-89 91-89 47 0 92 41 92 89v359c43-1 96-2 157-2" id="ai"/><path fill="#00c2a8" d="M741-273c50-2 102 44 100 94 0 19-8 40-25 63C764-40 600 34 473 34 251 34 46-175 46-396c0-217 200-459 413-459 160 0 336 211 336 369 0 44-28 73-82 92-62 22-312 32-464 24 15 104 106 205 224 203 39 0 88-18 149-53s100-53 119-53zM572-570c-76-133-187-104-270 20 39-1 129-7 270-20" id="aj"/><path fill="#00c2a8" d="M531-614c-33 0-117-43-150-43-49 0-84 9-103 26 45 67 311 167 362 220 54 56 87 121 87 208C727-59 571 34 418 34 267 34 142-29 43-154c7-41 48-130 87-128 2 0 37 22 104 66s127 66 179 66c66 0 107-17 123-50-5-45-48-90-128-136-72-41-147-78-217-121-80-49-116-111-116-174 0-130 162-224 297-224 79 0 256 66 256 140 0 50-47 101-97 101" id="ak"/><g id="i"><use transform="matrix(0.01953125,0,0,0.01953125,0,0)" xlink:href="#ad"/><use transform="matrix(0.01953125,0,0,0.01953125,19.8046875,0)" xlink:href="#ae"/><use transform="matrix(0.01953125,0,0,0.01953125,36.9140625,0)" xlink:href="#af"/><use transform="matrix(0.01953125,0,0,0.01953125,54.58984375,0)" xlink:href="#ag"/><use transform="matrix(0.01953125,0,0,0.01953125,69.78515625,0)" xlink:href="#af"/><use transform="matrix(0.01953125,0,0,0.01953125,87.4609375,0)" xlink:href="#ah"/><use transform="matrix(0.01953125,0,0,0.01953125,103.76953125,0)" xlink:href="#ai"/><use transform="matrix(0.01953125,0,0,0.01953125,117.2265625,0)" xlink:href="#aj"/><use transform="matrix(0.01953125,0,0,0.01953125,134.4921875,0)" xlink:href="#ag"/><use transform="matrix(0.01953125,0,0,0.01953125,149.6875,0)" xlink:href="#ak"/></g><path fill="#635dff" d="M32-990c0-232 243-390 485-390 230 0 384 80 460 242 25 53 37 112 37 177H848c0-169-110-254-331-254-175 0-321 66-320 224 0 68 25 124 82 157 72 43 313 83 425 114 184 50 303 136 310 344 8 234-251 397-495 397C251 21 32-142 31-398h166c5 169 112 254 321 254 161 0 330-78 330-223 0-98-70-169-211-207-131-36-266-59-393-103C99-727 32-841 32-990" id="al"/><path fill="#635dff" d="M816-616c-46-109-154-210-294-210-133 0-258 109-301 210h595zM31-484c0-260 230-507 491-507 282 0 495 254 487 541H196c10 148 163 311 326 306 147-5 277-104 326-215l166 28C947-150 753 16 522 21 260 27 31-223 31-484" id="am"/><g id="j"><use transform="matrix(0.008680555555555556,0,0,0.008680555555555556,0,0)" xlink:href="#al"/><use transform="matrix(0.008680555555555556,0,0,0.008680555555555556,10.026041666666668,0)" xlink:href="#am"/></g><path fill="#635dff" d="M223-484c0 174 142 340 313 340 169 0 319-168 319-340 0-174-147-342-319-342-173 0-313 166-313 342zm798 0c0 261-225 505-485 505-129 0-235-50-318-149v516H53V-970h165v128c83-99 189-149 318-149 260 0 485 246 485 507" id="an"/><path fill="#635dff" d="M535-805c-177 0-317 145-317 321V0H51v-970h167v134c85-89 189-134 310-134h218v218c-83-35-153-53-211-53" id="ao"/><path fill="#635dff" d="M30-484c0-265 224-507 485-507 196 0 345 102 446 305H770c-63-93-148-140-255-140-177 0-319 167-319 342 0 176 146 340 319 340 93 0 176-43 249-128h193C846-77 699 21 515 21 254 21 30-224 30-484" id="ap"/><path fill="#635dff" d="M233-1172c-50 0-96-44-96-94 0-49 46-93 96-93s96 43 96 93c0 52-44 94-96 94zM26-970h289V0H150v-805H26v-165" id="aq"/><path fill="#635dff" d="M68-580C-45-823 215-987 454-987c229 0 422 106 446 301l-161 34c-17-73-62-125-139-149-121-38-274-36-352 29-25 21-38 44-38 71 0 66 59 112 178 131 86 13 176 12 261 32 115 27 244 96 244 266 0 81-40 141-102 191C645 38 359 49 192-49 101-102 48-180 33-282l163-35c5 118 149 172 287 172 93 0 238-46 238-127 0-45-37-74-103-103-48-21-337-53-386-71-61-22-144-92-164-134" id="ar"/><path fill="#635dff" d="M484-144c91 0 275-43 275-120v-184c-54 18-283 13-339 27-84 21-172 73-172 157 0 80 79 120 236 120zm27-847c168 0 413 106 413 260v563c0 15 16 23 48 26-4 64-6 118-6 163-81-4-138-29-172-76-80 51-181 76-304 76C213 21 75-75 75-266c0-155 132-276 270-302-15-8 340-16 395-49 13-7 20-20 21-39-1 24-2 8-2-49 0-71-154-124-234-124-152 0-248 58-288 173L79-690c32-191 203-301 432-301" id="as"/><g id="k"><use transform="matrix(0.008680555555555556,0,0,0.008680555555555556,0,0)" xlink:href="#an"/><use transform="matrix(0.008680555555555556,0,0,0.008680555555555556,9.921875,0)" xlink:href="#ao"/><use transform="matrix(0.008680555555555556,0,0,0.008680555555555556,16.927083333333332,0)" xlink:href="#am"/><use transform="matrix(0.008680555555555556,0,0,0.008680555555555556,26.953125,0)" xlink:href="#ap"/><use transform="matrix(0.008680555555555556,0,0,0.008680555555555556,36.05034722222222,0)" xlink:href="#aq"/><use transform="matrix(0.008680555555555556,0,0,0.008680555555555556,39.78298611111111,0)" xlink:href="#ar"/><use transform="matrix(0.008680555555555556,0,0,0.008680555555555556,48.75,0)" xlink:href="#as"/><use transform="matrix(0.008680555555555556,0,0,0.008680555555555556,58.263888888888886,0)" xlink:href="#ao"/></g><path d="M466-979c200 0 408 176 408 373v255C884-154 666 22 466 22 264 22 59-152 59-351v-255c-8-199 205-373 407-373zm-1 871c134 0 279-110 279-241v-255c6-134-142-245-279-245-135 0-276 104-276 235v274c-6 127 146 232 276 232" id="at"/><g id="l"><use transform="matrix(0.01953125,0,0,0.01953125,0,0)" xlink:href="#F"/><use transform="matrix(0.01953125,0,0,0.01953125,8.125,0)" xlink:href="#E"/><use transform="matrix(0.01953125,0,0,0.01953125,29.86328125,0)" xlink:href="#D"/><use transform="matrix(0.01953125,0,0,0.01953125,50.17578125,0)" xlink:href="#at"/></g><path fill="#635dff" d="M174-1391c39 0 103 43 91 85 76 174 253 635 399 995 104-301 211-597 312-901 31-90 52-141 65-153 78-73 172-25 172 114V-12c-105 78-190 68-186-119 4-214 1-435 2-654-44 106-177 513-246 703-26 71-73 104-126 104-48 0-92-54-133-162-42-113-129-337-261-674 7 416 9 459-9 804-41 29-76 44-107 44-75 0-64-100-62-174 5-198-15-855-15-1053 0-132 35-198 104-198" id="au"/><path fill="#635dff" d="M741-273c50-2 102 44 100 94 0 19-8 40-25 63C764-40 600 34 473 34 251 34 46-175 46-396c0-217 200-459 413-459 160 0 336 211 336 369 0 44-28 73-82 92-62 22-312 32-464 24 15 104 106 205 224 203 39 0 88-18 149-53s100-53 119-53zM572-570c-76-133-187-104-270 20 39-1 129-7 270-20" id="av"/><path fill="#635dff" d="M531-614c-33 0-117-43-150-43-49 0-84 9-103 26 45 67 311 167 362 220 54 56 87 121 87 208C727-59 571 34 418 34 267 34 142-29 43-154c7-41 48-130 87-128 2 0 37 22 104 66s127 66 179 66c66 0 107-17 123-50-5-45-48-90-128-136-72-41-147-78-217-121-80-49-116-111-116-174 0-130 162-224 297-224 79 0 256 66 256 140 0 50-47 101-97 101" id="aw"/><path fill="#635dff" d="M584-872c50 0 94 39 94 90 0 53-31 85-94 98-29 6-81 10-156 10v662c-58 31-101 46-128 46-39 0-59-22-59-65 2-210 3-252 3-645-82 0-147-4-195-12-65-109-48-182 122-181 13-1 61 4 73 4v-364c-1-48 42-89 91-89 47 0 92 41 92 89v359c43-1 96-2 157-2" id="ax"/><path fill="#635dff" d="M468-848c193 0 298 180 298 385 0 53-38 94-92 94-48 0-81-25-95-75-20-75-16-213-105-213-95 0-223 127-223 222v425c-45 29-84 44-116 44-42 0-63-31-63-92 0-166-4-210-4-604 0-125 33-188 99-188 53 0 83 27 91 82 68-53 138-80 210-80" id="ay"/><g id="m"><use transform="matrix(0.01953125,0,0,0.01953125,0,0)" xlink:href="#au"/><use transform="matrix(0.01953125,0,0,0.01953125,25.09765625,0)" xlink:href="#av"/><use transform="matrix(0.01953125,0,0,0.01953125,42.36328125,0)" xlink:href="#aw"/><use transform="matrix(0.01953125,0,0,0.01953125,57.40234375,0)" xlink:href="#ax"/><use transform="matrix(0.01953125,0,0,0.01953125,70.859375,0)" xlink:href="#ay"/><use transform="matrix(0.01953125,0,0,0.01953125,86.0546875,0)" xlink:href="#av"/></g><path fill="#fc9432" d="M850-1171c9 45 36 358 36 444 0 199-32 365-94 497C709-54 581 34 404 34 142 34-49-236 24-522c66-38 171-53 171 44 0 158 61 316 204 316 189 0 284-195 284-586 0-182-31-348-36-558-1-54 41-93 94-93 51 0 84 28 100 83 6 21 9 69 9 145" id="az"/><path fill="#fc9432" d="M425-862c217 0 353 210 353 439 0 240-138 457-368 457C191 34 49-155 49-377c0-243 145-485 376-485zm-9 703c111 0 169-142 169-264 0-111-61-246-162-246-123 0-184 93-184 278 0 155 59 232 177 232" id="aA"/><path fill="#fc9432" d="M783-642c0 71 21 306 21 377 0 460-121 690-364 690-136 0-280-109-327-207-34-72 20-145 90-143 27 0 63 24 107 73C435 286 558 226 587 5 297 130 44-148 44-418c0-291 294-545 577-389 67-39 142-43 157 48 3 17 5 56 5 117zM242-423c0 121 98 257 214 257 26 0 76-21 150-63-1-66-9-190-22-372-40-39-84-59-133-59-116 0-209 122-209 237" id="aB"/><path fill="#fc9432" d="M836-686c0 187-30 463 2 630-71 75-129 122-171 10-82 53-167 80-256 80C187 34 46-160 46-393c0-281 308-555 614-431 19-27 45-40 76-40 67 0 100 59 100 178zM249-382c0 105 58 213 157 213 80 0 157-36 232-109 3-73 4-181 4-326 1 1-110-58-139-48-132-6-254 139-254 270" id="aC"/><path fill="#fc9432" d="M555-828c4-155-11-330-11-481 0-60 30-90 89-90 48 0 79 26 94 78 7 24 10 70 10 137 0 363-3 845 29 1153-44 35-82 53-114 53-23 0-40-14-53-42-61 36-127 54-196 54C185 34 15-173 15-393c0-266 251-557 540-435zM215-399c0 121 74 239 189 239 65 0 121-23 166-69-7-86-10-208-10-365-47-42-93-63-138-63-109 0-207 146-207 258" id="aD"/><path fill="#fc9432" d="M468-848c193 0 298 180 298 385 0 53-38 94-92 94-48 0-81-25-95-75-20-75-16-213-105-213-95 0-223 127-223 222v425c-45 29-84 44-116 44-42 0-63-31-63-92 0-166-4-210-4-604 0-125 33-188 99-188 53 0 83 27 91 82 68-53 138-80 210-80" id="aE"/><path fill="#fc9432" d="M741-273c50-2 102 44 100 94 0 19-8 40-25 63C764-40 600 34 473 34 251 34 46-175 46-396c0-217 200-459 413-459 160 0 336 211 336 369 0 44-28 73-82 92-62 22-312 32-464 24 15 104 106 205 224 203 39 0 88-18 149-53s100-53 119-53zM572-570c-76-133-187-104-270 20 39-1 129-7 270-20" id="aF"/><path fill="#fc9432" d="M531-614c-33 0-117-43-150-43-49 0-84 9-103 26 45 67 311 167 362 220 54 56 87 121 87 208C727-59 571 34 418 34 267 34 142-29 43-154c7-41 48-130 87-128 2 0 37 22 104 66s127 66 179 66c66 0 107-17 123-50-5-45-48-90-128-136-72-41-147-78-217-121-80-49-116-111-116-174 0-130 162-224 297-224 79 0 256 66 256 140 0 50-47 101-97 101" id="aG"/><g id="n"><use transform="matrix(0.01953125,0,0,0.01953125,0,0)" xlink:href="#az"/><use transform="matrix(0.01953125,0,0,0.01953125,18.10546875,0)" xlink:href="#aA"/><use transform="matrix(0.01953125,0,0,0.01953125,34.296875,0)" xlink:href="#aB"/><use transform="matrix(0.01953125,0,0,0.01953125,51.171875,0)" xlink:href="#aC"/><use transform="matrix(0.01953125,0,0,0.01953125,68.84765625,0)" xlink:href="#aD"/><use transform="matrix(0.01953125,0,0,0.01953125,85.0390625,0)" xlink:href="#aA"/><use transform="matrix(0.01953125,0,0,0.01953125,101.23046875,0)" xlink:href="#aE"/><use transform="matrix(0.01953125,0,0,0.01953125,116.42578125,0)" xlink:href="#aF"/><use transform="matrix(0.01953125,0,0,0.01953125,133.69140625,0)" xlink:href="#aG"/></g><path d="M41-589h282v-299h131v299h278v130H454v292H323v-292H41v-130" id="aH"/><use transform="matrix(0.0126953125,0,0,0.0126953125,0,0)" xlink:href="#aH" id="o"/><g id="p"><use transform="matrix(0.013020833333333334,0,0,0.013020833333333334,0,0)" xlink:href="#Z"/><use transform="matrix(0.013020833333333334,0,0,0.013020833333333334,14.973958333333334,0)" xlink:href="#aa"/><use transform="matrix(0.013020833333333334,0,0,0.013020833333333334,27.6171875,0)" xlink:href="#ab"/><use transform="matrix(0.013020833333333334,0,0,0.013020833333333334,42.083333333333336,0)" xlink:href="#ac"/></g><g id="q"><use transform="matrix(0.013020833333333334,0,0,0.013020833333333334,0,0)" xlink:href="#E"/><use transform="matrix(0.013020833333333334,0,0,0.013020833333333334,14.4921875,0)" xlink:href="#ac"/></g><path d="M204-1131V0H72v-1355h167l417 834 417-834h172V0h-133v-1131L732-373H584" id="aI"/><path d="M898-260C898-89 674 20 489 20 280 20 75-78 57-254l126-27c2 114 176 171 313 171 113 0 265-50 265-150 0-60-40-102-120-127-21-6-104-22-252-42-166-23-242-71-302-158-134-339 365-481 654-327 94 50 148 120 161 213l-126 27c-25-116-134-174-329-174-116 0-251 47-251 149 0 73 54 127 164 147 83 15 168 18 253 29 83 11 158 46 225 101 40 33 60 87 60 162" id="aJ"/><path d="M406 0C279 4 176-105 176-232v-595H26v-130c75 0 120-17 137-51 9-17 13-69 13-155h130v206h241v130H306v595c0 70 49 105 146 105 18 0 78-3 95-3V0H406" id="aK"/><g id="r"><use transform="matrix(0.013020833333333334,0,0,0.013020833333333334,0,0)" xlink:href="#aI"/><use transform="matrix(0.013020833333333334,0,0,0.013020833333333334,18.1640625,0)" xlink:href="#X"/><use transform="matrix(0.013020833333333334,0,0,0.013020833333333334,32.8125,0)" xlink:href="#aJ"/><use transform="matrix(0.013020833333333334,0,0,0.013020833333333334,45.872395833333336,0)" xlink:href="#aK"/><use transform="matrix(0.013020833333333334,0,0,0.013020833333333334,53.841145833333336,0)" xlink:href="#Y"/><use transform="matrix(0.013020833333333334,0,0,0.013020833333333334,63.95833333333335,0)" xlink:href="#X"/></g><path d="M966-625c20-2 56 36 56 56V0H893v-141C803-32 685 22 540 22 268 22 57-229 57-506v-345c-8-277 211-528 483-528s491 251 483 528H893c5-220-139-398-353-398-205 0-353 174-353 382v377c-5 208 148 382 353 382 208 0 359-175 354-388H606c-1-25-2-91 0-129h360" id="aL"/><g id="s"><use transform="matrix(0.013020833333333334,0,0,0.013020833333333334,0,0)" xlink:href="#aL"/><use transform="matrix(0.013020833333333334,0,0,0.013020833333333334,14.830729166666668,0)" xlink:href="#U"/><use transform="matrix(0.013020833333333334,0,0,0.013020833333333334,28.7109375,0)" xlink:href="#aJ"/><use transform="matrix(0.013020833333333334,0,0,0.013020833333333334,41.770833333333336,0)" xlink:href="#aK"/><use transform="matrix(0.013020833333333334,0,0,0.013020833333333334,49.739583333333336,0)" xlink:href="#U"/><use transform="matrix(0.013020833333333334,0,0,0.013020833333333334,63.61979166666667,0)" xlink:href="#Y"/></g><path d="M865-1355v130H204v424h531v134H204V0H74v-1355h791" id="aM"/><g id="t"><use transform="matrix(0.013020833333333334,0,0,0.013020833333333334,0,0)" xlink:href="#aM"/><use transform="matrix(0.013020833333333334,0,0,0.013020833333333334,12.018229166666668,0)" xlink:href="#X"/><use transform="matrix(0.013020833333333334,0,0,0.013020833333333334,26.666666666666668,0)" xlink:href="#U"/><use transform="matrix(0.013020833333333334,0,0,0.013020833333333334,40.546875,0)" xlink:href="#Y"/></g><path d="M178-957l334 813 331-813h142L595 0H424L33-957h145" id="aN"/><g id="u"><use transform="matrix(0.0126953125,0,0,0.0126953125,0,0)" xlink:href="#aI"/><use transform="matrix(0.0126953125,0,0,0.0126953125,17.7099609375,0)" xlink:href="#ac"/><use transform="matrix(0.0126953125,0,0,0.0126953125,31.9921875,0)" xlink:href="#aN"/><use transform="matrix(0.0126953125,0,0,0.0126953125,44.7001953125,0)" xlink:href="#X"/><use transform="matrix(0.0126953125,0,0,0.0126953125,58.982421875,0)" xlink:href="#Y"/></g><path d="M48-478c0-256 228-501 485-501 264 0 489 248 480 516H176c0 180 174 355 357 355 148 0 301-110 347-219l130 23C951-140 745 17 533 22 276 28 48-222 48-478zm815-115c-38-129-172-257-330-256-158 0-295 130-340 256h670zm-412-551l200-211h235l-377 268" id="aO"/><g id="v"><use transform="matrix(0.0126953125,0,0,0.0126953125,0,0)" xlink:href="#U"/><use transform="matrix(0.0126953125,0,0,0.0126953125,12.923828125,0)" xlink:href="#aK"/><use transform="matrix(0.0126953125,0,0,0.0126953125,20.693359375,0)" xlink:href="#aO"/></g><path d="M985-938c0 247-271 428-529 421H204V0H72v-1355h384c256-7 529 172 529 417zm-130 0c0-191-192-287-399-287H204v578h252c200 4 399-104 399-291" id="aP"/><g id="w"><use transform="matrix(0.0126953125,0,0,0.0126953125,0,0)" xlink:href="#aP"/><use transform="matrix(0.0126953125,0,0,0.0126953125,13.45703125,0)" xlink:href="#X"/><use transform="matrix(0.0126953125,0,0,0.0126953125,27.7392578125,0)" xlink:href="#Y"/><use transform="matrix(0.0126953125,0,0,0.0126953125,38.619140625,0)" xlink:href="#aK"/><use transform="matrix(0.0126953125,0,0,0.0126953125,46.388671875,0)" xlink:href="#ac"/></g><path d="M540-1249c-205 0-353 174-353 382v377c-5 208 148 382 353 382s353-174 353-382v-377c5-208-148-382-353-382zm0-130c272 0 483 251 483 528v345c8 277-211 528-483 528S57-229 57-506v-345c-8-277 211-528 483-528" id="aQ"/><g id="x"><use transform="matrix(0.0126953125,0,0,0.0126953125,0,0)" xlink:href="#aQ"/><use transform="matrix(0.0126953125,0,0,0.0126953125,14.37109375,0)" xlink:href="#T"/></g><path d="M540 22C268 22 57-229 57-506v-345c-8-277 211-528 483-528 249 0 439 198 473 423H885c-28-159-165-293-345-293-205 0-353 174-353 382v377c-5 208 148 382 353 382 180 0 318-134 345-293h128C979-176 789 22 540 22" id="aR"/><g id="y"><use transform="matrix(0.0126953125,0,0,0.0126953125,0,0)" xlink:href="#aR"/><use transform="matrix(0.0126953125,0,0,0.0126953125,14.015625,0)" xlink:href="#ac"/><use transform="matrix(0.0126953125,0,0,0.0126953125,28.2978515625,0)" xlink:href="#Y"/><use transform="matrix(0.0126953125,0,0,0.0126953125,39.482421875,0)" xlink:href="#Y"/><use transform="matrix(0.0126953125,0,0,0.0126953125,49.3466796875,0)" xlink:href="#X"/><use transform="matrix(0.0126953125,0,0,0.0126953125,63.62890625,0)" xlink:href="#Y"/></g><path d="M545-849c-196 0-341 171-341 371V0H74v-957h130v174c77-131 190-196 341-196 285 0 449 200 449 493V0H862v-478c2-219-106-371-317-371" id="aS"/><path d="M177-478c0 192 146 370 333 370s324-179 324-370c0-193-136-371-324-371-187 0-333 180-333 371zm332 742c191 3 334-157 330-347v-91C756-43 647 22 510 22 246 22 47-209 47-478c0-259 208-501 463-501 140 0 250 67 329 201v-179h130v888c6 260-201 463-461 463C272 394 95 221 61 14L188-7c30 151 149 268 321 271" id="aT"/><g id="z"><use transform="matrix(0.0126953125,0,0,0.0126953125,0,0)" xlink:href="#V"/><use transform="matrix(0.0126953125,0,0,0.0126953125,4.5068359375,0)" xlink:href="#ac"/><use transform="matrix(0.0126953125,0,0,0.0126953125,18.7890625,0)" xlink:href="#aS"/><use transform="matrix(0.0126953125,0,0,0.0126953125,32.9697265625,0)" xlink:href="#aT"/><use transform="matrix(0.0126953125,0,0,0.0126953125,46.9345703125,0)" xlink:href="#X"/></g><path fill="#635dff" d="M861-1357v165H218v374h516v169H218V0H53v-1357h808" id="aU"/><path fill="#635dff" d="M125-1357h167V0H125v-1357" id="aV"/><path fill="#635dff" d="M528-826c-169 0-310 170-310 342V0H53v-1357h165v515c80-99 183-149 310-149 256 0 429 236 429 499V0H792v-484c3-179-95-342-264-342" id="aW"/><g id="A"><use transform="matrix(0.008680555555555556,0,0,0.008680555555555556,0,0)" xlink:href="#aU"/><use transform="matrix(0.008680555555555556,0,0,0.008680555555555556,8.272569444444445,0)" xlink:href="#as"/><use transform="matrix(0.008680555555555556,0,0,0.008680555555555556,17.786458333333336,0)" xlink:href="#aV"/><use transform="matrix(0.008680555555555556,0,0,0.008680555555555556,21.536458333333336,0)" xlink:href="#aW"/><use transform="matrix(0.008680555555555556,0,0,0.008680555555555556,30.920138888888893,0)" xlink:href="#as"/><use transform="matrix(0.008680555555555556,0,0,0.008680555555555556,40.434027777777786,0)" xlink:href="#ao"/></g><path fill="#635dff" d="M838-484c0-173-151-342-322-342-177 0-319 167-319 342 0 176 146 340 319 340 171 0 322-167 322-340zm-807 0c0-265 224-507 485-507 260 0 487 246 487 507 0 260-229 505-487 505C255 21 31-224 31-484" id="aX"/><path fill="#635dff" d="M470-144c172 0 264-158 264-340v-486h165V0H734v-96C656-18 568 21 470 21 202 21 46-186 46-463v-507h165v507c-4 167 99 319 259 319" id="aY"/><g id="B"><use transform="matrix(0.008680555555555556,0,0,0.008680555555555556,0,0)" xlink:href="#aX"/><use transform="matrix(0.008680555555555556,0,0,0.008680555555555556,10.026041666666668,0)" xlink:href="#aY"/></g><g id="C"><use transform="matrix(0.008680555555555556,0,0,0.008680555555555556,0,0)" xlink:href="#aU"/><use transform="matrix(0.008680555555555556,0,0,0.008680555555555556,8.272569444444445,0)" xlink:href="#am"/><use transform="matrix(0.008680555555555556,0,0,0.008680555555555556,18.298611111111114,0)" xlink:href="#as"/><use transform="matrix(0.008680555555555556,0,0,0.008680555555555556,27.812500000000004,0)" xlink:href="#ao"/></g></defs></g></svg>